%TF.GenerationSoftware,KiCad,Pcbnew,10.0.5*%
%TF.CreationDate,2026-09-19T22:59:04+05:30*%
%TF.ProjectId,Home automation with ESP32,486f6d65-2061-4757-946f-6d6174696f6e,rev?*%
%TF.SameCoordinates,Original*%
%TF.FileFunction,Paste,Top*%
%TF.FilePolarity,Positive*%
%FSLAX46Y46*%
G04 Gerber Fmt 4.6, Leading zero omitted, Abs format (unit mm)*
G04 Created by KiCad (PCBNEW 10.0.5) date 2026-09-19 22:59:04*
%MOMM*%
%LPD*%
G01*
G04 APERTURE LIST*
G04 Aperture macros list*
%AMRoundRect*
0 Rectangle with rounded corners*
0 $1 Rounding radius*
0 $2 $3 $4 $5 $6 $7 $8 $9 X,Y pos of 4 corners*
0 Add a 4 corners polygon primitive as box body*
4,1,4,$2,$3,$4,$5,$6,$7,$8,$9,$2,$3,0*
0 Add four circle primitives for the rounded corners*
1,1,$1+$1,$2,$3*
1,1,$1+$1,$4,$5*
1,1,$1+$1,$6,$7*
1,1,$1+$1,$8,$9*
0 Add four rect primitives between the rounded corners*
20,1,$1+$1,$2,$3,$4,$5,0*
20,1,$1+$1,$4,$5,$6,$7,0*
20,1,$1+$1,$6,$7,$8,$9,0*
20,1,$1+$1,$8,$9,$2,$3,0*%
G04 Aperture macros list end*
%ADD10RoundRect,0.250000X0.250000X0.475000X-0.250000X0.475000X-0.250000X-0.475000X0.250000X-0.475000X0*%
%ADD11RoundRect,0.243750X-0.243750X-0.456250X0.243750X-0.456250X0.243750X0.456250X-0.243750X0.456250X0*%
%ADD12RoundRect,0.250000X-0.262500X-0.450000X0.262500X-0.450000X0.262500X0.450000X-0.262500X0.450000X0*%
%ADD13RoundRect,0.375000X-0.625000X-0.375000X0.625000X-0.375000X0.625000X0.375000X-0.625000X0.375000X0*%
%ADD14RoundRect,0.500000X-0.500000X-1.400000X0.500000X-1.400000X0.500000X1.400000X-0.500000X1.400000X0*%
%ADD15R,1.500000X0.900000*%
%ADD16R,0.900000X1.500000*%
%ADD17R,1.050000X1.050000*%
%ADD18RoundRect,0.250000X0.262500X0.450000X-0.262500X0.450000X-0.262500X-0.450000X0.262500X-0.450000X0*%
%ADD19RoundRect,0.250000X0.450000X-0.262500X0.450000X0.262500X-0.450000X0.262500X-0.450000X-0.262500X0*%
G04 APERTURE END LIST*
D10*
%TO.C,C1*%
X132950000Y-45000000D03*
X131050000Y-45000000D03*
%TD*%
D11*
%TO.C,D1*%
X133000000Y-49000000D03*
X131125000Y-49000000D03*
%TD*%
D12*
%TO.C,R1*%
X119912500Y-94000000D03*
X118087500Y-94000000D03*
%TD*%
D13*
%TO.C,U4*%
X137000000Y-40000000D03*
X137000000Y-42300000D03*
D14*
X143300000Y-42300000D03*
D13*
X137000000Y-44600000D03*
%TD*%
D15*
%TO.C,U1*%
X146120000Y-103760000D03*
X146120000Y-102490000D03*
X146120000Y-101220000D03*
X146120000Y-99950000D03*
X146120000Y-98680000D03*
X146120000Y-97410000D03*
X146120000Y-96140000D03*
X146120000Y-94870000D03*
X146120000Y-93600000D03*
X146120000Y-92330000D03*
X146120000Y-91060000D03*
X146120000Y-89790000D03*
X146120000Y-88520000D03*
X146120000Y-87250000D03*
D16*
X143080000Y-86000000D03*
X141810000Y-86000000D03*
X140540000Y-86000000D03*
X139270000Y-86000000D03*
X138000000Y-86000000D03*
X136730000Y-86000000D03*
X135460000Y-86000000D03*
X134190000Y-86000000D03*
X132920000Y-86000000D03*
X131650000Y-86000000D03*
D15*
X128620000Y-87250000D03*
X128620000Y-88520000D03*
X128620000Y-89790000D03*
X128620000Y-91060000D03*
X128620000Y-92330000D03*
X128620000Y-93600000D03*
X128620000Y-94870000D03*
X128620000Y-96140000D03*
X128620000Y-97410000D03*
X128620000Y-98680000D03*
X128620000Y-99950000D03*
X128620000Y-101220000D03*
X128620000Y-102490000D03*
X128620000Y-103760000D03*
D17*
X139575000Y-97945000D03*
X139575000Y-96420000D03*
X139575000Y-94895000D03*
X138050000Y-97945000D03*
X138050000Y-96420000D03*
X138050000Y-94895000D03*
X136525000Y-97945000D03*
X136525000Y-96420000D03*
X136525000Y-94895000D03*
%TD*%
D12*
%TO.C,R8*%
X140087500Y-53000000D03*
X141912500Y-53000000D03*
%TD*%
D18*
%TO.C,R7*%
X141912500Y-49000000D03*
X140087500Y-49000000D03*
%TD*%
%TO.C,R6*%
X137825000Y-53000000D03*
X136000000Y-53000000D03*
%TD*%
%TO.C,R5*%
X137912500Y-49000000D03*
X136087500Y-49000000D03*
%TD*%
D12*
%TO.C,R4*%
X131087500Y-63000000D03*
X132912500Y-63000000D03*
%TD*%
D19*
%TO.C,R3*%
X109000000Y-83912500D03*
X109000000Y-82087500D03*
%TD*%
D12*
%TO.C,R2*%
X118000000Y-73000000D03*
X119825000Y-73000000D03*
%TD*%
D11*
%TO.C,D2*%
X131125000Y-53000000D03*
X133000000Y-53000000D03*
%TD*%
D10*
%TO.C,C2*%
X132950000Y-41000000D03*
X131050000Y-41000000D03*
%TD*%
M02*
