M48
; DRILL file KiCad 10.0.5 date 2026-09-19T22:59:12
; FORMAT={-:-/ absolute / metric / decimal}
; #@! TF.CreationDate,2026-09-19T22:59:12+05:30
; #@! TF.GenerationSoftware,Kicad,Pcbnew,10.0.5
; #@! TF.FileFunction,MixedPlating,1,2
FMAT,2
METRIC
; #@! TA.AperFunction,Plated,PTH,ComponentDrill
T1C0.200
; #@! TA.AperFunction,Plated,PTH,ViaDrill
T2C0.300
; #@! TA.AperFunction,Plated,PTH,ComponentDrill
T3C0.500
; #@! TA.AperFunction,Plated,PTH,ComponentDrill
T4C0.750
; #@! TA.AperFunction,Plated,PTH,ComponentDrill
T5C0.800
; #@! TA.AperFunction,Plated,PTH,ComponentDrill
T6C1.000
; #@! TA.AperFunction,Plated,PTH,ComponentDrill
T7C1.100
; #@! TA.AperFunction,Plated,PTH,ComponentDrill
T8C1.300
; #@! TA.AperFunction,Plated,PTH,ComponentDrill
T9C1.600
; #@! TA.AperFunction,Plated,PTH,ComponentDrill
T10C2.700
%
G90
G05
T1
X136.525Y-95.657
X136.525Y-97.182
X137.287Y-94.895
X137.287Y-96.42
X137.287Y-97.945
X138.05Y-95.657
X138.05Y-97.182
X138.812Y-94.895
X138.812Y-96.42
X138.812Y-97.945
X139.575Y-95.657
X139.575Y-97.182
T2
X117.0Y-88.0
X117.0Y-88.0
X119.0Y-82.0
X120.0Y-79.0
X122.0Y-97.0
X125.0Y-75.0
X126.0Y-100.0
X128.0Y-83.0
X128.62Y-87.25
X129.0Y-59.0
X131.0Y-78.0
X132.0Y-79.0
X132.95Y-45.0
X135.0Y-82.0
X135.0Y-90.0
X135.0Y-93.0
X136.0Y-76.0
X140.088Y-54.912
X142.0Y-55.0
X143.0Y-90.707
X144.0Y-75.0
X145.915Y-101.015
X147.0Y-85.0
X148.0Y-77.0
X148.0Y-81.0
T3
X118.0Y-102.0
X118.593Y-100.568
X118.593Y-103.432
X120.025Y-99.975
X120.025Y-104.025
X121.457Y-100.568
X121.457Y-103.432
X121.975Y-66.0
X122.05Y-102.0
X122.568Y-64.568
X122.568Y-67.432
X124.0Y-63.975
X124.0Y-68.025
X125.432Y-64.568
X125.432Y-67.432
X126.025Y-66.0
X150.975Y-40.0
X151.568Y-38.568
X151.568Y-41.432
X151.975Y-99.0
X152.568Y-97.568
X152.568Y-100.432
X153.0Y-37.975
X153.0Y-42.025
X154.0Y-96.975
X154.0Y-101.025
X154.432Y-38.568
X154.432Y-41.432
X155.025Y-40.0
X155.432Y-97.568
X155.432Y-100.432
X156.025Y-99.0
T4
X112.73Y-65.0
X114.0Y-65.0
X115.0Y-83.0
X115.0Y-84.27
X115.0Y-85.54
X115.27Y-65.0
T5
X114.0Y-70.19
X114.0Y-77.81
X114.0Y-90.19
X114.0Y-97.81
X121.725Y-82.185
X121.725Y-89.805
X124.265Y-82.185
X124.265Y-89.805
X130.195Y-67.105
X130.195Y-74.725
X132.735Y-67.105
X132.735Y-74.725
T6
X94.712Y-47.0
X94.712Y-52.0
X123.792Y-42.0
X123.792Y-57.0
X155.0Y-64.0
X155.0Y-66.54
X155.0Y-69.08
X155.0Y-71.62
T7
X104.4Y-91.4
X104.4Y-101.6
X150.75Y-48.75
X150.75Y-53.25
X152.75Y-83.75
X152.75Y-88.25
X157.25Y-48.75
X157.25Y-53.25
X159.25Y-83.75
X159.25Y-88.25
T8
X83.0Y-66.0
X83.0Y-71.0
X83.0Y-76.0
X84.0Y-41.0
X84.0Y-46.0
X84.0Y-51.0
X84.0Y-56.0
X94.0Y-66.0
X94.0Y-78.0
X106.2Y-66.0
X106.2Y-78.0
X108.2Y-72.0
T9
X89.2Y-87.6
X91.74Y-105.4
T10
X120.025Y-102.0
X124.0Y-66.0
X153.0Y-40.0
X154.0Y-99.0
M30
