%TF.GenerationSoftware,KiCad,Pcbnew,10.0.5*%
%TF.CreationDate,2026-09-19T22:59:04+05:30*%
%TF.ProjectId,Home automation with ESP32,486f6d65-2061-4757-946f-6d6174696f6e,rev?*%
%TF.SameCoordinates,Original*%
%TF.FileFunction,Soldermask,Bot*%
%TF.FilePolarity,Negative*%
%FSLAX46Y46*%
G04 Gerber Fmt 4.6, Leading zero omitted, Abs format (unit mm)*
G04 Created by KiCad (PCBNEW 10.0.5) date 2026-09-19 22:59:04*
%MOMM*%
%LPD*%
G01*
G04 APERTURE LIST*
G04 Aperture macros list*
%AMRoundRect*
0 Rectangle with rounded corners*
0 $1 Rounding radius*
0 $2 $3 $4 $5 $6 $7 $8 $9 X,Y pos of 4 corners*
0 Add a 4 corners polygon primitive as box body*
4,1,4,$2,$3,$4,$5,$6,$7,$8,$9,$2,$3,0*
0 Add four circle primitives for the rounded corners*
1,1,$1+$1,$2,$3*
1,1,$1+$1,$4,$5*
1,1,$1+$1,$6,$7*
1,1,$1+$1,$8,$9*
0 Add four rect primitives between the rounded corners*
20,1,$1+$1,$2,$3,$4,$5,0*
20,1,$1+$1,$4,$5,$6,$7,0*
20,1,$1+$1,$6,$7,$8,$9,0*
20,1,$1+$1,$8,$9,$2,$3,0*%
G04 Aperture macros list end*
%ADD10RoundRect,0.250000X-1.050000X1.050000X-1.050000X-1.050000X1.050000X-1.050000X1.050000X1.050000X0*%
%ADD11C,2.600000*%
%ADD12C,2.154000*%
%ADD13C,0.800000*%
%ADD14C,5.400000*%
%ADD15RoundRect,0.250000X0.550000X-0.550000X0.550000X0.550000X-0.550000X0.550000X-0.550000X-0.550000X0*%
%ADD16C,1.600000*%
%ADD17RoundRect,0.250000X-0.600000X-0.750000X0.600000X-0.750000X0.600000X0.750000X-0.600000X0.750000X0*%
%ADD18O,1.700000X2.000000*%
%ADD19C,2.000000*%
%ADD20R,1.050000X1.500000*%
%ADD21O,1.050000X1.500000*%
%ADD22R,1.500000X1.050000*%
%ADD23O,1.500000X1.050000*%
%ADD24C,3.000000*%
%ADD25RoundRect,0.500000X-0.500000X-0.500000X0.500000X-0.500000X0.500000X0.500000X-0.500000X0.500000X0*%
%ADD26R,1.700000X1.700000*%
%ADD27C,1.700000*%
G04 APERTURE END LIST*
D10*
%TO.C,J3*%
X84000000Y-41000000D03*
D11*
X84000000Y-46000000D03*
X84000000Y-51000000D03*
X84000000Y-56000000D03*
%TD*%
%TO.C,J2*%
X83000000Y-76000000D03*
X83000000Y-71000000D03*
D10*
X83000000Y-66000000D03*
%TD*%
D12*
%TO.C,K3*%
X94000000Y-66000000D03*
X106200000Y-78000000D03*
X94000000Y-78000000D03*
X108200000Y-72000000D03*
X106200000Y-66000000D03*
%TD*%
D13*
%TO.C,H3*%
X150975000Y-40000000D03*
X151568109Y-38568109D03*
X151568109Y-41431891D03*
X153000000Y-37975000D03*
D14*
X153000000Y-40000000D03*
D13*
X153000000Y-42025000D03*
X154431891Y-38568109D03*
X154431891Y-41431891D03*
X155025000Y-40000000D03*
%TD*%
D15*
%TO.C,D4*%
X114000000Y-77810000D03*
D16*
X114000000Y-70190000D03*
%TD*%
%TO.C,D3*%
X114000000Y-90190000D03*
D15*
X114000000Y-97810000D03*
%TD*%
D17*
%TO.C,U5*%
X94712500Y-47000000D03*
D18*
X94712500Y-52000000D03*
X123792500Y-42000000D03*
X123792500Y-57000000D03*
%TD*%
D15*
%TO.C,U3*%
X130195000Y-74725000D03*
D16*
X132735000Y-74725000D03*
X132735000Y-67105000D03*
X130195000Y-67105000D03*
%TD*%
D15*
%TO.C,U2*%
X121725000Y-89805000D03*
D16*
X124265000Y-89805000D03*
X124265000Y-82185000D03*
X121725000Y-82185000D03*
%TD*%
D19*
%TO.C,SW2*%
X152750000Y-83750000D03*
X159250000Y-83750000D03*
X152750000Y-88250000D03*
X159250000Y-88250000D03*
%TD*%
%TO.C,SW1*%
X150750000Y-48750000D03*
X157250000Y-48750000D03*
X150750000Y-53250000D03*
X157250000Y-53250000D03*
%TD*%
D20*
%TO.C,Q2*%
X112730000Y-65000000D03*
D21*
X114000000Y-65000000D03*
X115270000Y-65000000D03*
%TD*%
D22*
%TO.C,Q1*%
X115000000Y-85540000D03*
D23*
X115000000Y-84270000D03*
X115000000Y-83000000D03*
%TD*%
D24*
%TO.C,K1*%
X91740000Y-105400000D03*
X89200000Y-87600000D03*
D25*
X104400000Y-101600000D03*
D19*
X104400000Y-91400000D03*
%TD*%
D26*
%TO.C,J1*%
X155000000Y-64000000D03*
D27*
X155000000Y-66540000D03*
X155000000Y-69080000D03*
X155000000Y-71620000D03*
%TD*%
D13*
%TO.C,H4*%
X151975000Y-99000000D03*
X152568109Y-97568109D03*
X152568109Y-100431891D03*
X154000000Y-96975000D03*
D14*
X154000000Y-99000000D03*
D13*
X154000000Y-101025000D03*
X155431891Y-97568109D03*
X155431891Y-100431891D03*
X156025000Y-99000000D03*
%TD*%
%TO.C,H2*%
X121975000Y-66000000D03*
X122568109Y-64568109D03*
X122568109Y-67431891D03*
X124000000Y-63975000D03*
D14*
X124000000Y-66000000D03*
D13*
X124000000Y-68025000D03*
X125431891Y-64568109D03*
X125431891Y-67431891D03*
X126025000Y-66000000D03*
%TD*%
%TO.C,H1*%
X118000000Y-102000000D03*
X118593109Y-100568109D03*
X118593109Y-103431891D03*
X120025000Y-99975000D03*
D14*
X120025000Y-102000000D03*
D13*
X120025000Y-104025000D03*
X121456891Y-100568109D03*
X121456891Y-103431891D03*
X122050000Y-102000000D03*
%TD*%
M02*
