%TF.GenerationSoftware,KiCad,Pcbnew,10.0.5*%
%TF.CreationDate,2026-09-19T22:59:04+05:30*%
%TF.ProjectId,Home automation with ESP32,486f6d65-2061-4757-946f-6d6174696f6e,rev?*%
%TF.SameCoordinates,Original*%
%TF.FileFunction,Soldermask,Top*%
%TF.FilePolarity,Negative*%
%FSLAX46Y46*%
G04 Gerber Fmt 4.6, Leading zero omitted, Abs format (unit mm)*
G04 Created by KiCad (PCBNEW 10.0.5) date 2026-09-19 22:59:04*
%MOMM*%
%LPD*%
G01*
G04 APERTURE LIST*
G04 Aperture macros list*
%AMRoundRect*
0 Rectangle with rounded corners*
0 $1 Rounding radius*
0 $2 $3 $4 $5 $6 $7 $8 $9 X,Y pos of 4 corners*
0 Add a 4 corners polygon primitive as box body*
4,1,4,$2,$3,$4,$5,$6,$7,$8,$9,$2,$3,0*
0 Add four circle primitives for the rounded corners*
1,1,$1+$1,$2,$3*
1,1,$1+$1,$4,$5*
1,1,$1+$1,$6,$7*
1,1,$1+$1,$8,$9*
0 Add four rect primitives between the rounded corners*
20,1,$1+$1,$2,$3,$4,$5,0*
20,1,$1+$1,$4,$5,$6,$7,0*
20,1,$1+$1,$6,$7,$8,$9,0*
20,1,$1+$1,$8,$9,$2,$3,0*%
G04 Aperture macros list end*
%ADD10RoundRect,0.250000X-1.050000X1.050000X-1.050000X-1.050000X1.050000X-1.050000X1.050000X1.050000X0*%
%ADD11C,2.600000*%
%ADD12RoundRect,0.250000X0.250000X0.475000X-0.250000X0.475000X-0.250000X-0.475000X0.250000X-0.475000X0*%
%ADD13RoundRect,0.243750X-0.243750X-0.456250X0.243750X-0.456250X0.243750X0.456250X-0.243750X0.456250X0*%
%ADD14C,2.154000*%
%ADD15C,0.800000*%
%ADD16C,5.400000*%
%ADD17RoundRect,0.250000X-0.262500X-0.450000X0.262500X-0.450000X0.262500X0.450000X-0.262500X0.450000X0*%
%ADD18RoundRect,0.250000X0.550000X-0.550000X0.550000X0.550000X-0.550000X0.550000X-0.550000X-0.550000X0*%
%ADD19C,1.600000*%
%ADD20RoundRect,0.250000X-0.600000X-0.750000X0.600000X-0.750000X0.600000X0.750000X-0.600000X0.750000X0*%
%ADD21O,1.700000X2.000000*%
%ADD22RoundRect,0.375000X-0.625000X-0.375000X0.625000X-0.375000X0.625000X0.375000X-0.625000X0.375000X0*%
%ADD23RoundRect,0.500000X-0.500000X-1.400000X0.500000X-1.400000X0.500000X1.400000X-0.500000X1.400000X0*%
%ADD24R,1.500000X0.900000*%
%ADD25R,0.900000X1.500000*%
%ADD26C,0.600000*%
%ADD27R,4.200000X4.200000*%
%ADD28C,2.000000*%
%ADD29RoundRect,0.250000X0.262500X0.450000X-0.262500X0.450000X-0.262500X-0.450000X0.262500X-0.450000X0*%
%ADD30RoundRect,0.250000X0.450000X-0.262500X0.450000X0.262500X-0.450000X0.262500X-0.450000X-0.262500X0*%
%ADD31R,1.050000X1.500000*%
%ADD32O,1.050000X1.500000*%
%ADD33R,1.500000X1.050000*%
%ADD34O,1.500000X1.050000*%
%ADD35C,3.000000*%
%ADD36RoundRect,0.500000X-0.500000X-0.500000X0.500000X-0.500000X0.500000X0.500000X-0.500000X0.500000X0*%
%ADD37R,1.700000X1.700000*%
%ADD38C,1.700000*%
G04 APERTURE END LIST*
D10*
%TO.C,J3*%
X84000000Y-41000000D03*
D11*
X84000000Y-46000000D03*
X84000000Y-51000000D03*
X84000000Y-56000000D03*
%TD*%
%TO.C,J2*%
X83000000Y-76000000D03*
X83000000Y-71000000D03*
D10*
X83000000Y-66000000D03*
%TD*%
D12*
%TO.C,C1*%
X132950000Y-45000000D03*
X131050000Y-45000000D03*
%TD*%
D13*
%TO.C,D1*%
X133000000Y-49000000D03*
X131125000Y-49000000D03*
%TD*%
D14*
%TO.C,K3*%
X94000000Y-66000000D03*
X106200000Y-78000000D03*
X94000000Y-78000000D03*
X108200000Y-72000000D03*
X106200000Y-66000000D03*
%TD*%
D15*
%TO.C,H3*%
X150975000Y-40000000D03*
X151568109Y-38568109D03*
X151568109Y-41431891D03*
X153000000Y-37975000D03*
D16*
X153000000Y-40000000D03*
D15*
X153000000Y-42025000D03*
X154431891Y-38568109D03*
X154431891Y-41431891D03*
X155025000Y-40000000D03*
%TD*%
D17*
%TO.C,R1*%
X119912500Y-94000000D03*
X118087500Y-94000000D03*
%TD*%
D18*
%TO.C,D4*%
X114000000Y-77810000D03*
D19*
X114000000Y-70190000D03*
%TD*%
%TO.C,D3*%
X114000000Y-90190000D03*
D18*
X114000000Y-97810000D03*
%TD*%
D20*
%TO.C,U5*%
X94712500Y-47000000D03*
D21*
X94712500Y-52000000D03*
X123792500Y-42000000D03*
X123792500Y-57000000D03*
%TD*%
D22*
%TO.C,U4*%
X137000000Y-40000000D03*
X137000000Y-42300000D03*
D23*
X143300000Y-42300000D03*
D22*
X137000000Y-44600000D03*
%TD*%
D18*
%TO.C,U3*%
X130195000Y-74725000D03*
D19*
X132735000Y-74725000D03*
X132735000Y-67105000D03*
X130195000Y-67105000D03*
%TD*%
D18*
%TO.C,U2*%
X121725000Y-89805000D03*
D19*
X124265000Y-89805000D03*
X124265000Y-82185000D03*
X121725000Y-82185000D03*
%TD*%
D24*
%TO.C,U1*%
X146120000Y-103760000D03*
X146120000Y-102490000D03*
X146120000Y-101220000D03*
X146120000Y-99950000D03*
X146120000Y-98680000D03*
X146120000Y-97410000D03*
X146120000Y-96140000D03*
X146120000Y-94870000D03*
X146120000Y-93600000D03*
X146120000Y-92330000D03*
X146120000Y-91060000D03*
X146120000Y-89790000D03*
X146120000Y-88520000D03*
X146120000Y-87250000D03*
D25*
X143080000Y-86000000D03*
X141810000Y-86000000D03*
X140540000Y-86000000D03*
X139270000Y-86000000D03*
X138000000Y-86000000D03*
X136730000Y-86000000D03*
X135460000Y-86000000D03*
X134190000Y-86000000D03*
X132920000Y-86000000D03*
X131650000Y-86000000D03*
D24*
X128620000Y-87250000D03*
X128620000Y-88520000D03*
X128620000Y-89790000D03*
X128620000Y-91060000D03*
X128620000Y-92330000D03*
X128620000Y-93600000D03*
X128620000Y-94870000D03*
X128620000Y-96140000D03*
X128620000Y-97410000D03*
X128620000Y-98680000D03*
X128620000Y-99950000D03*
X128620000Y-101220000D03*
X128620000Y-102490000D03*
X128620000Y-103760000D03*
D26*
X139575000Y-97182500D03*
X139575000Y-95657500D03*
X138812500Y-97945000D03*
X138812500Y-96420000D03*
X138812500Y-94895000D03*
X138050000Y-97182500D03*
D27*
X138050000Y-96420000D03*
D26*
X138050000Y-95657500D03*
X137287500Y-97945000D03*
X137287500Y-96420000D03*
X137287500Y-94895000D03*
X136525000Y-97182500D03*
X136525000Y-95657500D03*
%TD*%
D28*
%TO.C,SW2*%
X152750000Y-83750000D03*
X159250000Y-83750000D03*
X152750000Y-88250000D03*
X159250000Y-88250000D03*
%TD*%
%TO.C,SW1*%
X150750000Y-48750000D03*
X157250000Y-48750000D03*
X150750000Y-53250000D03*
X157250000Y-53250000D03*
%TD*%
D17*
%TO.C,R8*%
X140087500Y-53000000D03*
X141912500Y-53000000D03*
%TD*%
D29*
%TO.C,R7*%
X141912500Y-49000000D03*
X140087500Y-49000000D03*
%TD*%
%TO.C,R6*%
X137825000Y-53000000D03*
X136000000Y-53000000D03*
%TD*%
%TO.C,R5*%
X137912500Y-49000000D03*
X136087500Y-49000000D03*
%TD*%
D17*
%TO.C,R4*%
X131087500Y-63000000D03*
X132912500Y-63000000D03*
%TD*%
D30*
%TO.C,R3*%
X109000000Y-83912500D03*
X109000000Y-82087500D03*
%TD*%
D17*
%TO.C,R2*%
X118000000Y-73000000D03*
X119825000Y-73000000D03*
%TD*%
D31*
%TO.C,Q2*%
X112730000Y-65000000D03*
D32*
X114000000Y-65000000D03*
X115270000Y-65000000D03*
%TD*%
D33*
%TO.C,Q1*%
X115000000Y-85540000D03*
D34*
X115000000Y-84270000D03*
X115000000Y-83000000D03*
%TD*%
D35*
%TO.C,K1*%
X91740000Y-105400000D03*
X89200000Y-87600000D03*
D36*
X104400000Y-101600000D03*
D28*
X104400000Y-91400000D03*
%TD*%
D37*
%TO.C,J1*%
X155000000Y-64000000D03*
D38*
X155000000Y-66540000D03*
X155000000Y-69080000D03*
X155000000Y-71620000D03*
%TD*%
D15*
%TO.C,H4*%
X151975000Y-99000000D03*
X152568109Y-97568109D03*
X152568109Y-100431891D03*
X154000000Y-96975000D03*
D16*
X154000000Y-99000000D03*
D15*
X154000000Y-101025000D03*
X155431891Y-97568109D03*
X155431891Y-100431891D03*
X156025000Y-99000000D03*
%TD*%
%TO.C,H2*%
X121975000Y-66000000D03*
X122568109Y-64568109D03*
X122568109Y-67431891D03*
X124000000Y-63975000D03*
D16*
X124000000Y-66000000D03*
D15*
X124000000Y-68025000D03*
X125431891Y-64568109D03*
X125431891Y-67431891D03*
X126025000Y-66000000D03*
%TD*%
%TO.C,H1*%
X118000000Y-102000000D03*
X118593109Y-100568109D03*
X118593109Y-103431891D03*
X120025000Y-99975000D03*
D16*
X120025000Y-102000000D03*
D15*
X120025000Y-104025000D03*
X121456891Y-100568109D03*
X121456891Y-103431891D03*
X122050000Y-102000000D03*
%TD*%
D13*
%TO.C,D2*%
X131125000Y-53000000D03*
X133000000Y-53000000D03*
%TD*%
D12*
%TO.C,C2*%
X132950000Y-41000000D03*
X131050000Y-41000000D03*
%TD*%
M02*
