%TF.GenerationSoftware,KiCad,Pcbnew,10.0.5*%
%TF.CreationDate,2026-09-19T22:59:04+05:30*%
%TF.ProjectId,Home automation with ESP32,486f6d65-2061-4757-946f-6d6174696f6e,rev?*%
%TF.SameCoordinates,Original*%
%TF.FileFunction,Copper,L2,Bot*%
%TF.FilePolarity,Positive*%
%FSLAX46Y46*%
G04 Gerber Fmt 4.6, Leading zero omitted, Abs format (unit mm)*
G04 Created by KiCad (PCBNEW 10.0.5) date 2026-09-19 22:59:04*
%MOMM*%
%LPD*%
G01*
G04 APERTURE LIST*
G04 Aperture macros list*
%AMRoundRect*
0 Rectangle with rounded corners*
0 $1 Rounding radius*
0 $2 $3 $4 $5 $6 $7 $8 $9 X,Y pos of 4 corners*
0 Add a 4 corners polygon primitive as box body*
4,1,4,$2,$3,$4,$5,$6,$7,$8,$9,$2,$3,0*
0 Add four circle primitives for the rounded corners*
1,1,$1+$1,$2,$3*
1,1,$1+$1,$4,$5*
1,1,$1+$1,$6,$7*
1,1,$1+$1,$8,$9*
0 Add four rect primitives between the rounded corners*
20,1,$1+$1,$2,$3,$4,$5,0*
20,1,$1+$1,$4,$5,$6,$7,0*
20,1,$1+$1,$6,$7,$8,$9,0*
20,1,$1+$1,$8,$9,$2,$3,0*%
G04 Aperture macros list end*
%TA.AperFunction,ComponentPad*%
%ADD10RoundRect,0.250000X-1.050000X1.050000X-1.050000X-1.050000X1.050000X-1.050000X1.050000X1.050000X0*%
%TD*%
%TA.AperFunction,ComponentPad*%
%ADD11C,2.600000*%
%TD*%
%TA.AperFunction,ComponentPad*%
%ADD12C,1.950000*%
%TD*%
%TA.AperFunction,ComponentPad*%
%ADD13C,0.800000*%
%TD*%
%TA.AperFunction,ComponentPad*%
%ADD14C,5.400000*%
%TD*%
%TA.AperFunction,ComponentPad*%
%ADD15RoundRect,0.250000X0.550000X-0.550000X0.550000X0.550000X-0.550000X0.550000X-0.550000X-0.550000X0*%
%TD*%
%TA.AperFunction,ComponentPad*%
%ADD16C,1.600000*%
%TD*%
%TA.AperFunction,ComponentPad*%
%ADD17RoundRect,0.250000X-0.600000X-0.750000X0.600000X-0.750000X0.600000X0.750000X-0.600000X0.750000X0*%
%TD*%
%TA.AperFunction,ComponentPad*%
%ADD18O,1.700000X2.000000*%
%TD*%
%TA.AperFunction,HeatsinkPad*%
%ADD19C,0.600000*%
%TD*%
%TA.AperFunction,ComponentPad*%
%ADD20C,2.000000*%
%TD*%
%TA.AperFunction,ComponentPad*%
%ADD21R,1.050000X1.500000*%
%TD*%
%TA.AperFunction,ComponentPad*%
%ADD22O,1.050000X1.500000*%
%TD*%
%TA.AperFunction,ComponentPad*%
%ADD23R,1.500000X1.050000*%
%TD*%
%TA.AperFunction,ComponentPad*%
%ADD24O,1.500000X1.050000*%
%TD*%
%TA.AperFunction,ComponentPad*%
%ADD25C,3.000000*%
%TD*%
%TA.AperFunction,ComponentPad*%
%ADD26RoundRect,0.500000X-0.500000X-0.500000X0.500000X-0.500000X0.500000X0.500000X-0.500000X0.500000X0*%
%TD*%
%TA.AperFunction,ComponentPad*%
%ADD27R,1.700000X1.700000*%
%TD*%
%TA.AperFunction,ComponentPad*%
%ADD28C,1.700000*%
%TD*%
%TA.AperFunction,ViaPad*%
%ADD29C,0.600000*%
%TD*%
%TA.AperFunction,Conductor*%
%ADD30C,2.500000*%
%TD*%
%TA.AperFunction,Conductor*%
%ADD31C,0.500000*%
%TD*%
%TA.AperFunction,Conductor*%
%ADD32C,1.000000*%
%TD*%
G04 APERTURE END LIST*
D10*
%TO.P,J3,1,Pin_1_1*%
%TO.N,/L2*%
X84000000Y-41000000D03*
D11*
%TO.P,J3,2,Pin_2_2*%
%TO.N,/L1*%
X84000000Y-46000000D03*
%TO.P,J3,3,Pin_3_3*%
%TO.N,/N*%
X84000000Y-51000000D03*
%TO.P,J3,4,Pin_4_4*%
%TO.N,/P*%
X84000000Y-56000000D03*
%TD*%
%TO.P,J2,3,Pin_3_3*%
%TO.N,GND*%
X83000000Y-76000000D03*
%TO.P,J2,2,Pin_2_2*%
%TO.N,/IN2*%
X83000000Y-71000000D03*
D10*
%TO.P,J2,1,Pin_1_1*%
%TO.N,/IN1*%
X83000000Y-66000000D03*
%TD*%
D12*
%TO.P,K3,NO*%
%TO.N,/L2*%
X94000000Y-66000000D03*
%TO.P,K3,A1*%
%TO.N,/5V*%
X106200000Y-78000000D03*
%TO.P,K3,NC*%
%TO.N,unconnected-(K3-PadNC)*%
X94000000Y-78000000D03*
%TO.P,K3,COM*%
%TO.N,/P*%
X108200000Y-72000000D03*
%TO.P,K3,A2*%
%TO.N,Net-(D4-A)*%
X106200000Y-66000000D03*
%TD*%
D13*
%TO.P,H3,1,1_1*%
%TO.N,GND*%
X150975000Y-40000000D03*
X151568109Y-38568109D03*
X151568109Y-41431891D03*
X153000000Y-37975000D03*
D14*
X153000000Y-40000000D03*
D13*
X153000000Y-42025000D03*
X154431891Y-38568109D03*
X154431891Y-41431891D03*
X155025000Y-40000000D03*
%TD*%
D15*
%TO.P,D4,1,K_1*%
%TO.N,/5V*%
X114000000Y-77810000D03*
D16*
%TO.P,D4,2,A_2*%
%TO.N,Net-(D4-A)*%
X114000000Y-70190000D03*
%TD*%
%TO.P,D3,2,A_2*%
%TO.N,Net-(D3-A)*%
X114000000Y-90190000D03*
D15*
%TO.P,D3,1,K_1*%
%TO.N,/5V*%
X114000000Y-97810000D03*
%TD*%
D17*
%TO.P,U5,1,AC/L_1*%
%TO.N,/P*%
X94712500Y-47000000D03*
D18*
%TO.P,U5,2,AC/N_2*%
%TO.N,/N*%
X94712500Y-52000000D03*
%TO.P,U5,3,-Vout_3*%
%TO.N,GND*%
X123792500Y-42000000D03*
%TO.P,U5,4,+Vout_4*%
%TO.N,/5V*%
X123792500Y-57000000D03*
%TD*%
D15*
%TO.P,U3,1*%
%TO.N,Net-(R2-Pad1)*%
X130195000Y-74725000D03*
D16*
%TO.P,U3,2*%
%TO.N,GND*%
X132735000Y-74725000D03*
%TO.P,U3,3*%
%TO.N,Net-(R4-Pad2)*%
X132735000Y-67105000D03*
%TO.P,U3,4*%
%TO.N,GND*%
X130195000Y-67105000D03*
%TD*%
D15*
%TO.P,U2,1*%
%TO.N,Net-(R1-Pad1)*%
X121725000Y-89805000D03*
D16*
%TO.P,U2,2*%
%TO.N,GND*%
X124265000Y-89805000D03*
%TO.P,U2,3*%
%TO.N,Net-(R3-Pad2)*%
X124265000Y-82185000D03*
%TO.P,U2,4*%
%TO.N,GND*%
X121725000Y-82185000D03*
%TD*%
D19*
%TO.P,U1,39,GND_39*%
%TO.N,GND*%
X139575000Y-97182500D03*
X139575000Y-95657500D03*
X138812500Y-97945000D03*
X138812500Y-96420000D03*
X138812500Y-94895000D03*
X138050000Y-97182500D03*
X138050000Y-95657500D03*
X137287500Y-97945000D03*
X137287500Y-96420000D03*
X137287500Y-94895000D03*
X136525000Y-97182500D03*
X136525000Y-95657500D03*
%TD*%
D20*
%TO.P,SW2,1,1_1*%
%TO.N,/EN*%
X152750000Y-83750000D03*
X159250000Y-83750000D03*
%TO.P,SW2,2,2_2*%
%TO.N,GND*%
X152750000Y-88250000D03*
X159250000Y-88250000D03*
%TD*%
%TO.P,SW1,1,1_1*%
%TO.N,/BOOT*%
X150750000Y-48750000D03*
X157250000Y-48750000D03*
%TO.P,SW1,2,2_2*%
%TO.N,GND*%
X150750000Y-53250000D03*
X157250000Y-53250000D03*
%TD*%
D21*
%TO.P,Q2,1,E_1*%
%TO.N,GND*%
X112730000Y-65000000D03*
D22*
%TO.P,Q2,2,B_2*%
%TO.N,Net-(Q2-B)*%
X114000000Y-65000000D03*
%TO.P,Q2,3,C_3*%
%TO.N,Net-(D4-A)*%
X115270000Y-65000000D03*
%TD*%
D23*
%TO.P,Q1,1,E_1*%
%TO.N,GND*%
X115000000Y-85540000D03*
D24*
%TO.P,Q1,2,B_2*%
%TO.N,Net-(Q1-B)*%
X115000000Y-84270000D03*
%TO.P,Q1,3,C_3*%
%TO.N,Net-(D3-A)*%
X115000000Y-83000000D03*
%TD*%
D25*
%TO.P,K1,13*%
%TO.N,/L1*%
X91740000Y-105400000D03*
%TO.P,K1,14*%
%TO.N,/P*%
X89200000Y-87600000D03*
D26*
%TO.P,K1,A1*%
%TO.N,/5V*%
X104400000Y-101600000D03*
D20*
%TO.P,K1,A2*%
%TO.N,Net-(D3-A)*%
X104400000Y-91400000D03*
%TD*%
D27*
%TO.P,J1,1,Pin_1_1*%
%TO.N,/TXD*%
X155000000Y-64000000D03*
D28*
%TO.P,J1,2,Pin_2_2*%
%TO.N,/RXD*%
X155000000Y-66540000D03*
%TO.P,J1,3,Pin_3_3*%
%TO.N,GND*%
X155000000Y-69080000D03*
%TO.P,J1,4,Pin_4_4*%
%TO.N,/3V3*%
X155000000Y-71620000D03*
%TD*%
D13*
%TO.P,H4,1,1_1*%
%TO.N,GND*%
X151975000Y-99000000D03*
X152568109Y-97568109D03*
X152568109Y-100431891D03*
X154000000Y-96975000D03*
D14*
X154000000Y-99000000D03*
D13*
X154000000Y-101025000D03*
X155431891Y-97568109D03*
X155431891Y-100431891D03*
X156025000Y-99000000D03*
%TD*%
%TO.P,H2,1,1_1*%
%TO.N,GND*%
X121975000Y-66000000D03*
X122568109Y-64568109D03*
X122568109Y-67431891D03*
X124000000Y-63975000D03*
D14*
X124000000Y-66000000D03*
D13*
X124000000Y-68025000D03*
X125431891Y-64568109D03*
X125431891Y-67431891D03*
X126025000Y-66000000D03*
%TD*%
%TO.P,H1,1,1_1*%
%TO.N,GND*%
X118000000Y-102000000D03*
X118593109Y-100568109D03*
X118593109Y-103431891D03*
X120025000Y-99975000D03*
D14*
X120025000Y-102000000D03*
D13*
X120025000Y-104025000D03*
X121456891Y-100568109D03*
X121456891Y-103431891D03*
X122050000Y-102000000D03*
%TD*%
D29*
%TO.N,/EN*%
X140087500Y-54912500D03*
%TO.N,/3V3*%
X142000000Y-55000000D03*
%TO.N,/5V*%
X132950000Y-45000000D03*
%TO.N,/EN*%
X145914644Y-101014644D03*
%TO.N,GND*%
X129000000Y-59000000D03*
%TO.N,Net-(R3-Pad2)*%
X119000000Y-82000000D03*
%TO.N,/LED2*%
X135000000Y-82000000D03*
X136000000Y-76000000D03*
%TO.N,/BOOT*%
X128620000Y-87250000D03*
%TO.N,/LED1*%
X148000000Y-81000000D03*
X147000000Y-85000000D03*
%TO.N,/TXD*%
X144000000Y-75000000D03*
X135000000Y-93000000D03*
%TO.N,/RXD*%
X148000000Y-77000000D03*
X135000000Y-90000000D03*
%TO.N,/R2*%
X131000000Y-78000000D03*
X125000000Y-75000000D03*
%TO.N,/R1*%
X126000000Y-100000000D03*
X122000000Y-97000000D03*
%TO.N,/IN1*%
X117000000Y-88000000D03*
X128000000Y-83000000D03*
X117000000Y-88000000D03*
%TO.N,GND*%
X143000000Y-90707500D03*
%TO.N,/IN2*%
X120000000Y-79000000D03*
X132000000Y-79000000D03*
%TD*%
%TO.N,/L2*%
D30*
X92412500Y-64412500D02*
X94000000Y-66000000D01*
X92412500Y-49412500D02*
X92412500Y-64412500D01*
X84000000Y-41000000D02*
X92412500Y-49412500D01*
%TO.N,/L1*%
X86000000Y-99660000D02*
X91740000Y-105400000D01*
X86750000Y-85878069D02*
X86000000Y-86628069D01*
X86750000Y-48750000D02*
X86750000Y-85878069D01*
X84000000Y-46000000D02*
X86750000Y-48750000D01*
X86000000Y-86628069D02*
X86000000Y-99660000D01*
%TO.N,/P*%
X103775000Y-67575000D02*
X108200000Y-72000000D01*
X103775000Y-56062500D02*
X103775000Y-67575000D01*
X94712500Y-47000000D02*
X103775000Y-56062500D01*
X92600000Y-87600000D02*
X108200000Y-72000000D01*
X89200000Y-87600000D02*
X92600000Y-87600000D01*
%TO.N,/EN*%
D31*
X140000000Y-58000000D02*
X140000000Y-55000000D01*
X140000000Y-55000000D02*
X140087500Y-54912500D01*
%TO.N,/3V3*%
X142000000Y-58620000D02*
X142000000Y-55000000D01*
%TO.N,/5V*%
X123792500Y-54157500D02*
X132950000Y-45000000D01*
X123792500Y-57000000D02*
X123792500Y-54157500D01*
%TO.N,/EN*%
X152750000Y-83750000D02*
X145914644Y-90585356D01*
X145914644Y-90585356D02*
X145914644Y-101014644D01*
%TO.N,GND*%
X129000000Y-61000000D02*
X129000000Y-59000000D01*
X125431891Y-64568109D02*
X129000000Y-61000000D01*
%TO.N,/LED2*%
X135000000Y-77000000D02*
X136000000Y-76000000D01*
X135000000Y-82000000D02*
X135000000Y-77000000D01*
%TO.N,/BOOT*%
X128620000Y-90338161D02*
X128620000Y-87250000D01*
X146700000Y-101289949D02*
X145989949Y-102000000D01*
X146700000Y-98350610D02*
X146700000Y-101289949D01*
X145989949Y-102000000D02*
X140281839Y-102000000D01*
X160700000Y-84350610D02*
X146700000Y-98350610D01*
X160700000Y-52200000D02*
X160700000Y-84350610D01*
X140281839Y-102000000D02*
X128620000Y-90338161D01*
X157250000Y-48750000D02*
X160700000Y-52200000D01*
%TO.N,GND*%
X153000000Y-51000000D02*
X153000000Y-40000000D01*
X150750000Y-53250000D02*
X153000000Y-51000000D01*
%TO.N,Net-(R3-Pad2)*%
X120065000Y-80935000D02*
X119000000Y-82000000D01*
X123015000Y-80935000D02*
X120065000Y-80935000D01*
X124265000Y-82185000D02*
X123015000Y-80935000D01*
%TO.N,/5V*%
X115250000Y-96560000D02*
X114000000Y-97810000D01*
X115250000Y-87750000D02*
X115250000Y-96560000D01*
X116200000Y-86800000D02*
X115250000Y-87750000D01*
X116200000Y-80010000D02*
X116200000Y-86800000D01*
X114000000Y-77810000D02*
X116200000Y-80010000D01*
X116245000Y-64547500D02*
X123792500Y-57000000D01*
X116245000Y-75565000D02*
X116245000Y-64547500D01*
X114000000Y-77810000D02*
X116245000Y-75565000D01*
X113810000Y-78000000D02*
X114000000Y-77810000D01*
X106200000Y-78000000D02*
X113810000Y-78000000D01*
%TO.N,/LED1*%
X147000000Y-82000000D02*
X148000000Y-81000000D01*
X147000000Y-85000000D02*
X147000000Y-82000000D01*
%TO.N,/EN*%
X159250000Y-83750000D02*
X152750000Y-83750000D01*
X152750000Y-70750000D02*
X140000000Y-58000000D01*
X152750000Y-83750000D02*
X152750000Y-70750000D01*
%TO.N,/TXD*%
X134250000Y-84750000D02*
X144000000Y-75000000D01*
X135000000Y-93000000D02*
X134250000Y-92250000D01*
X134250000Y-92250000D02*
X134250000Y-84750000D01*
%TO.N,/RXD*%
X135000000Y-90000000D02*
X148000000Y-77000000D01*
%TO.N,/3V3*%
X155000000Y-71620000D02*
X142000000Y-58620000D01*
%TO.N,/R2*%
X128000000Y-75000000D02*
X131000000Y-78000000D01*
X125000000Y-75000000D02*
X128000000Y-75000000D01*
%TO.N,/R1*%
X123000000Y-97000000D02*
X122000000Y-97000000D01*
X126000000Y-100000000D02*
X123000000Y-97000000D01*
%TO.N,/IN1*%
D32*
X123000000Y-88000000D02*
X128000000Y-83000000D01*
X117000000Y-88000000D02*
X123000000Y-88000000D01*
%TO.N,GND*%
D31*
X138812500Y-94895000D02*
X143000000Y-90707500D01*
%TO.N,/IN2*%
D32*
X132000000Y-79000000D02*
X120000000Y-79000000D01*
%TO.N,Net-(D4-A)*%
D31*
X114403858Y-66200000D02*
X115270000Y-65333858D01*
X115270000Y-65333858D02*
X115270000Y-65000000D01*
X106400000Y-66200000D02*
X114403858Y-66200000D01*
X106200000Y-66000000D02*
X106400000Y-66200000D01*
X115270000Y-68920000D02*
X115270000Y-65000000D01*
X114000000Y-70190000D02*
X115270000Y-68920000D01*
%TO.N,Net-(D3-A)*%
X111000000Y-86666142D02*
X111000000Y-90190000D01*
X115000000Y-83000000D02*
X114666142Y-83000000D01*
X111000000Y-90190000D02*
X105610000Y-90190000D01*
X114666142Y-83000000D02*
X111000000Y-86666142D01*
%TO.N,/5V*%
X110210000Y-101600000D02*
X114000000Y-97810000D01*
X104400000Y-101600000D02*
X110210000Y-101600000D01*
%TO.N,Net-(D3-A)*%
X105610000Y-90190000D02*
X104400000Y-91400000D01*
X114000000Y-90190000D02*
X111000000Y-90190000D01*
%TD*%
%TA.AperFunction,Conductor*%
%TO.N,GND*%
G36*
X113669334Y-85160689D02*
G01*
X113725267Y-85202561D01*
X113749684Y-85268025D01*
X113750000Y-85276871D01*
X113750000Y-85290000D01*
X114634134Y-85290000D01*
X114658326Y-85292383D01*
X114661123Y-85292939D01*
X114673995Y-85295499D01*
X114673996Y-85295500D01*
X114714170Y-85295500D01*
X114699925Y-85309745D01*
X114650556Y-85395255D01*
X114625000Y-85490630D01*
X114625000Y-85589370D01*
X114650556Y-85684745D01*
X114699925Y-85770255D01*
X114719670Y-85790000D01*
X113750000Y-85790000D01*
X113750000Y-86112844D01*
X113756401Y-86172372D01*
X113756403Y-86172379D01*
X113806645Y-86307086D01*
X113806649Y-86307093D01*
X113892809Y-86422187D01*
X113892812Y-86422190D01*
X114007906Y-86508350D01*
X114007913Y-86508354D01*
X114142620Y-86558596D01*
X114142627Y-86558598D01*
X114202155Y-86564999D01*
X114202172Y-86565000D01*
X114750000Y-86565000D01*
X114750000Y-85820330D01*
X114769745Y-85840075D01*
X114855255Y-85889444D01*
X114950630Y-85915000D01*
X115049370Y-85915000D01*
X115144745Y-85889444D01*
X115230255Y-85840075D01*
X115250000Y-85820330D01*
X115250000Y-86586503D01*
X115257619Y-86600457D01*
X115252635Y-86670149D01*
X115224134Y-86714496D01*
X114667049Y-87271581D01*
X114623552Y-87336679D01*
X114623553Y-87336680D01*
X114584914Y-87394508D01*
X114528343Y-87531082D01*
X114528340Y-87531092D01*
X114499500Y-87676079D01*
X114499500Y-88814199D01*
X114479815Y-88881238D01*
X114427011Y-88926993D01*
X114357853Y-88936937D01*
X114337183Y-88932130D01*
X114304542Y-88921524D01*
X114304535Y-88921523D01*
X114203443Y-88905511D01*
X114102352Y-88889500D01*
X113897648Y-88889500D01*
X113873329Y-88893351D01*
X113695465Y-88921522D01*
X113500776Y-88984781D01*
X113318386Y-89077715D01*
X113152786Y-89198028D01*
X113008032Y-89342782D01*
X113008028Y-89342787D01*
X112974900Y-89388385D01*
X112919571Y-89431051D01*
X112874582Y-89439500D01*
X111874500Y-89439500D01*
X111807461Y-89419815D01*
X111761706Y-89367011D01*
X111750500Y-89315500D01*
X111750500Y-87028371D01*
X111770185Y-86961332D01*
X111786814Y-86940695D01*
X113538319Y-85189189D01*
X113599642Y-85155705D01*
X113669334Y-85160689D01*
G37*
%TD.AperFunction*%
%TA.AperFunction,Conductor*%
G36*
X161442539Y-35520185D02*
G01*
X161488294Y-35572989D01*
X161499500Y-35624500D01*
X161499500Y-51638892D01*
X161479815Y-51705931D01*
X161427011Y-51751686D01*
X161357853Y-51761630D01*
X161294297Y-51732605D01*
X161287513Y-51725638D01*
X161287260Y-51725892D01*
X158751280Y-49189912D01*
X158717795Y-49128589D01*
X158716488Y-49082836D01*
X158735374Y-48963592D01*
X158750500Y-48868096D01*
X158750500Y-48631902D01*
X158713553Y-48398631D01*
X158640566Y-48174003D01*
X158533342Y-47963566D01*
X158394517Y-47772490D01*
X158227510Y-47605483D01*
X158036433Y-47466657D01*
X157825996Y-47359433D01*
X157601368Y-47286446D01*
X157368097Y-47249500D01*
X157368092Y-47249500D01*
X157131908Y-47249500D01*
X157131903Y-47249500D01*
X156898631Y-47286446D01*
X156674003Y-47359433D01*
X156463566Y-47466657D01*
X156377503Y-47529186D01*
X156272490Y-47605483D01*
X156272488Y-47605485D01*
X156272487Y-47605485D01*
X156105485Y-47772487D01*
X156105485Y-47772488D01*
X156105483Y-47772490D01*
X156045862Y-47854550D01*
X155966657Y-47963566D01*
X155859433Y-48174003D01*
X155786446Y-48398631D01*
X155749500Y-48631902D01*
X155749500Y-48868097D01*
X155786446Y-49101368D01*
X155859433Y-49325996D01*
X155887826Y-49381719D01*
X155966657Y-49536433D01*
X156105483Y-49727510D01*
X156272490Y-49894517D01*
X156463567Y-50033343D01*
X156562991Y-50084002D01*
X156674003Y-50140566D01*
X156674005Y-50140566D01*
X156674008Y-50140568D01*
X156794412Y-50179689D01*
X156898631Y-50213553D01*
X157131903Y-50250500D01*
X157131908Y-50250500D01*
X157368096Y-50250500D01*
X157463592Y-50235374D01*
X157582834Y-50216488D01*
X157652126Y-50225442D01*
X157689912Y-50251280D01*
X159913181Y-52474549D01*
X159946666Y-52535872D01*
X159949500Y-52562230D01*
X159949500Y-82228890D01*
X159929815Y-82295929D01*
X159877011Y-82341684D01*
X159807853Y-82351628D01*
X159787182Y-82346821D01*
X159601370Y-82286447D01*
X159368097Y-82249500D01*
X159368092Y-82249500D01*
X159131908Y-82249500D01*
X159131903Y-82249500D01*
X158898631Y-82286446D01*
X158674003Y-82359433D01*
X158463566Y-82466657D01*
X158398079Y-82514237D01*
X158272490Y-82605483D01*
X158272488Y-82605485D01*
X158272487Y-82605485D01*
X158105485Y-82772487D01*
X158105485Y-82772488D01*
X158105483Y-82772490D01*
X158011783Y-82901457D01*
X157977687Y-82948386D01*
X157922357Y-82991051D01*
X157877369Y-82999500D01*
X154122631Y-82999500D01*
X154055592Y-82979815D01*
X154022313Y-82948386D01*
X153894517Y-82772490D01*
X153727510Y-82605483D01*
X153618230Y-82526086D01*
X153551614Y-82477686D01*
X153508949Y-82422355D01*
X153500500Y-82377368D01*
X153500500Y-72158226D01*
X153520185Y-72091187D01*
X153572989Y-72045432D01*
X153642147Y-72035488D01*
X153705703Y-72064513D01*
X153742431Y-72119908D01*
X153748444Y-72138414D01*
X153844951Y-72327820D01*
X153969890Y-72499786D01*
X154120213Y-72650109D01*
X154292179Y-72775048D01*
X154292181Y-72775049D01*
X154292184Y-72775051D01*
X154481588Y-72871557D01*
X154683757Y-72937246D01*
X154893713Y-72970500D01*
X154893714Y-72970500D01*
X155106286Y-72970500D01*
X155106287Y-72970500D01*
X155316243Y-72937246D01*
X155518412Y-72871557D01*
X155707816Y-72775051D01*
X155729789Y-72759086D01*
X155879786Y-72650109D01*
X155879788Y-72650106D01*
X155879792Y-72650104D01*
X156030104Y-72499792D01*
X156030106Y-72499788D01*
X156030109Y-72499786D01*
X156155048Y-72327820D01*
X156155047Y-72327820D01*
X156155051Y-72327816D01*
X156251557Y-72138412D01*
X156317246Y-71936243D01*
X156350500Y-71726287D01*
X156350500Y-71513713D01*
X156317246Y-71303757D01*
X156251557Y-71101588D01*
X156155051Y-70912184D01*
X156155049Y-70912181D01*
X156155048Y-70912179D01*
X156030109Y-70740213D01*
X155879786Y-70589890D01*
X155707817Y-70464949D01*
X155698504Y-70460204D01*
X155647707Y-70412230D01*
X155630912Y-70344409D01*
X155653449Y-70278274D01*
X155698507Y-70239232D01*
X155707555Y-70234622D01*
X155761716Y-70195270D01*
X155761717Y-70195270D01*
X155129408Y-69562962D01*
X155192993Y-69545925D01*
X155307007Y-69480099D01*
X155400099Y-69387007D01*
X155465925Y-69272993D01*
X155482962Y-69209408D01*
X156115270Y-69841717D01*
X156115270Y-69841716D01*
X156154622Y-69787554D01*
X156251095Y-69598217D01*
X156316757Y-69396130D01*
X156316757Y-69396127D01*
X156350000Y-69186246D01*
X156350000Y-68973753D01*
X156316757Y-68763872D01*
X156316757Y-68763869D01*
X156251095Y-68561782D01*
X156154624Y-68372449D01*
X156115270Y-68318282D01*
X156115269Y-68318282D01*
X155482962Y-68950590D01*
X155465925Y-68887007D01*
X155400099Y-68772993D01*
X155307007Y-68679901D01*
X155192993Y-68614075D01*
X155129409Y-68597037D01*
X155761716Y-67964728D01*
X155707547Y-67925373D01*
X155707547Y-67925372D01*
X155698500Y-67920763D01*
X155647706Y-67872788D01*
X155630912Y-67804966D01*
X155653451Y-67738832D01*
X155698508Y-67699793D01*
X155707816Y-67695051D01*
X155787007Y-67637515D01*
X155879786Y-67570109D01*
X155879788Y-67570106D01*
X155879792Y-67570104D01*
X156030104Y-67419792D01*
X156030106Y-67419788D01*
X156030109Y-67419786D01*
X156155048Y-67247820D01*
X156155047Y-67247820D01*
X156155051Y-67247816D01*
X156251557Y-67058412D01*
X156317246Y-66856243D01*
X156350500Y-66646287D01*
X156350500Y-66433713D01*
X156317246Y-66223757D01*
X156251557Y-66021588D01*
X156155051Y-65832184D01*
X156155049Y-65832181D01*
X156155048Y-65832179D01*
X156030109Y-65660213D01*
X155916569Y-65546673D01*
X155883084Y-65485350D01*
X155888068Y-65415658D01*
X155929940Y-65359725D01*
X155960915Y-65342810D01*
X156092331Y-65293796D01*
X156207546Y-65207546D01*
X156293796Y-65092331D01*
X156344091Y-64957483D01*
X156350500Y-64897873D01*
X156350499Y-63102128D01*
X156344091Y-63042517D01*
X156293796Y-62907669D01*
X156293795Y-62907668D01*
X156293793Y-62907664D01*
X156207547Y-62792455D01*
X156207544Y-62792452D01*
X156092335Y-62706206D01*
X156092328Y-62706202D01*
X155957482Y-62655908D01*
X155957483Y-62655908D01*
X155897883Y-62649501D01*
X155897881Y-62649500D01*
X155897873Y-62649500D01*
X155897864Y-62649500D01*
X154102129Y-62649500D01*
X154102123Y-62649501D01*
X154042516Y-62655908D01*
X153907671Y-62706202D01*
X153907664Y-62706206D01*
X153792455Y-62792452D01*
X153792452Y-62792455D01*
X153706206Y-62907664D01*
X153706202Y-62907671D01*
X153655908Y-63042517D01*
X153649501Y-63102116D01*
X153649501Y-63102123D01*
X153649500Y-63102135D01*
X153649500Y-64897870D01*
X153649501Y-64897876D01*
X153655908Y-64957483D01*
X153706202Y-65092328D01*
X153706206Y-65092335D01*
X153792452Y-65207544D01*
X153792455Y-65207547D01*
X153907664Y-65293793D01*
X153907671Y-65293797D01*
X154039082Y-65342810D01*
X154095016Y-65384681D01*
X154119433Y-65450145D01*
X154104582Y-65518418D01*
X154083431Y-65546673D01*
X153969889Y-65660215D01*
X153844951Y-65832179D01*
X153748444Y-66021585D01*
X153682753Y-66223760D01*
X153649500Y-66433713D01*
X153649500Y-66646286D01*
X153673919Y-66800465D01*
X153682754Y-66856243D01*
X153736933Y-67022989D01*
X153748444Y-67058414D01*
X153844951Y-67247820D01*
X153969890Y-67419786D01*
X154120213Y-67570109D01*
X154292179Y-67695048D01*
X154292181Y-67695049D01*
X154292184Y-67695051D01*
X154301493Y-67699794D01*
X154352290Y-67747766D01*
X154369087Y-67815587D01*
X154346552Y-67881722D01*
X154301505Y-67920760D01*
X154292446Y-67925376D01*
X154292440Y-67925380D01*
X154238282Y-67964727D01*
X154238282Y-67964728D01*
X154870591Y-68597037D01*
X154807007Y-68614075D01*
X154692993Y-68679901D01*
X154599901Y-68772993D01*
X154534075Y-68887007D01*
X154517037Y-68950591D01*
X153884728Y-68318282D01*
X153884727Y-68318282D01*
X153845380Y-68372439D01*
X153748904Y-68561782D01*
X153683242Y-68763869D01*
X153683242Y-68763872D01*
X153655955Y-68936151D01*
X153626025Y-68999286D01*
X153566714Y-69036217D01*
X153496851Y-69035219D01*
X153445801Y-69004434D01*
X147627855Y-63186487D01*
X142786819Y-58345451D01*
X142753334Y-58284128D01*
X142750500Y-58257770D01*
X142750500Y-55304604D01*
X142759939Y-55257151D01*
X142769737Y-55233497D01*
X142800500Y-55078842D01*
X142800500Y-54921158D01*
X142800500Y-54921155D01*
X142800499Y-54921153D01*
X142772639Y-54781093D01*
X142769737Y-54766503D01*
X142762901Y-54750000D01*
X142709397Y-54620827D01*
X142709390Y-54620814D01*
X142624849Y-54494290D01*
X142621789Y-54489711D01*
X142621786Y-54489707D01*
X142510292Y-54378213D01*
X142510288Y-54378210D01*
X142379185Y-54290609D01*
X142379172Y-54290602D01*
X142233501Y-54230264D01*
X142233489Y-54230261D01*
X142078845Y-54199500D01*
X142078842Y-54199500D01*
X141921158Y-54199500D01*
X141921155Y-54199500D01*
X141766510Y-54230261D01*
X141766498Y-54230264D01*
X141620827Y-54290602D01*
X141620814Y-54290609D01*
X141489711Y-54378210D01*
X141489707Y-54378213D01*
X141378213Y-54489707D01*
X141378210Y-54489711D01*
X141290609Y-54620814D01*
X141290602Y-54620827D01*
X141230264Y-54766498D01*
X141230261Y-54766510D01*
X141199500Y-54921153D01*
X141199500Y-55078846D01*
X141230261Y-55233489D01*
X141230263Y-55233497D01*
X141240061Y-55257151D01*
X141249500Y-55304604D01*
X141249500Y-57888770D01*
X141229815Y-57955809D01*
X141177011Y-58001564D01*
X141107853Y-58011508D01*
X141044297Y-57982483D01*
X141037819Y-57976451D01*
X140786819Y-57725451D01*
X140753334Y-57664128D01*
X140750500Y-57637770D01*
X140750500Y-55398726D01*
X140770185Y-55331687D01*
X140771328Y-55329940D01*
X140796894Y-55291679D01*
X140798995Y-55286608D01*
X140834060Y-55201951D01*
X140857237Y-55145997D01*
X140888000Y-54991342D01*
X140888000Y-54833658D01*
X140888000Y-54833655D01*
X140887999Y-54833653D01*
X140877544Y-54781093D01*
X140857237Y-54679003D01*
X140842493Y-54643408D01*
X140796897Y-54533327D01*
X140796890Y-54533314D01*
X140709289Y-54402211D01*
X140709286Y-54402207D01*
X140597792Y-54290713D01*
X140597788Y-54290710D01*
X140466685Y-54203109D01*
X140466672Y-54203102D01*
X140321001Y-54142764D01*
X140320989Y-54142761D01*
X140166345Y-54112000D01*
X140166342Y-54112000D01*
X140008658Y-54112000D01*
X140008655Y-54112000D01*
X139854010Y-54142761D01*
X139853998Y-54142764D01*
X139708327Y-54203102D01*
X139708314Y-54203109D01*
X139577211Y-54290710D01*
X139577207Y-54290713D01*
X139465713Y-54402207D01*
X139465710Y-54402211D01*
X139378109Y-54533314D01*
X139378102Y-54533327D01*
X139317763Y-54679000D01*
X139317760Y-54679011D01*
X139317496Y-54680340D01*
X139310444Y-54703584D01*
X139291219Y-54750000D01*
X139278341Y-54781090D01*
X139278340Y-54781093D01*
X139249500Y-54926079D01*
X139249500Y-54926082D01*
X139249500Y-58073918D01*
X139249500Y-58073920D01*
X139249499Y-58073920D01*
X139278340Y-58218907D01*
X139278343Y-58218917D01*
X139334914Y-58355491D01*
X139334916Y-58355495D01*
X139365380Y-58401088D01*
X139365379Y-58401088D01*
X139417046Y-58478414D01*
X139417052Y-58478421D01*
X151963181Y-71024549D01*
X151996666Y-71085872D01*
X151999500Y-71112230D01*
X151999500Y-82377368D01*
X151979815Y-82444407D01*
X151948386Y-82477686D01*
X151772488Y-82605484D01*
X151605485Y-82772487D01*
X151605485Y-82772488D01*
X151605483Y-82772490D01*
X151580029Y-82807525D01*
X151466657Y-82963566D01*
X151359433Y-83174003D01*
X151286446Y-83398631D01*
X151249500Y-83631902D01*
X151249500Y-83868097D01*
X151283511Y-84082833D01*
X151274556Y-84152126D01*
X151248719Y-84189912D01*
X145331691Y-90106940D01*
X145323467Y-90119250D01*
X145323466Y-90119252D01*
X145249557Y-90229864D01*
X145192987Y-90366438D01*
X145192984Y-90366448D01*
X145164144Y-90511435D01*
X145164144Y-100710040D01*
X145154706Y-100757488D01*
X145153827Y-100759613D01*
X145144906Y-100781150D01*
X145144904Y-100781155D01*
X145114144Y-100935797D01*
X145114144Y-100935802D01*
X145114144Y-101093486D01*
X145114144Y-101093488D01*
X145114143Y-101093488D01*
X145115700Y-101101312D01*
X145109471Y-101170904D01*
X145066606Y-101226080D01*
X145000716Y-101249322D01*
X144994082Y-101249500D01*
X140644069Y-101249500D01*
X140577030Y-101229815D01*
X140556388Y-101213181D01*
X131667127Y-92323920D01*
X133499499Y-92323920D01*
X133528340Y-92468907D01*
X133528343Y-92468917D01*
X133584913Y-92605490D01*
X133584914Y-92605492D01*
X133610982Y-92644505D01*
X133610983Y-92644507D01*
X133667043Y-92728410D01*
X133667047Y-92728415D01*
X134253927Y-93315295D01*
X134280806Y-93355521D01*
X134290606Y-93379179D01*
X134290607Y-93379181D01*
X134378207Y-93510284D01*
X134378213Y-93510292D01*
X134489707Y-93621786D01*
X134489711Y-93621789D01*
X134620814Y-93709390D01*
X134620827Y-93709397D01*
X134766498Y-93769735D01*
X134766503Y-93769737D01*
X134921153Y-93800499D01*
X134921156Y-93800500D01*
X134921158Y-93800500D01*
X135078844Y-93800500D01*
X135078845Y-93800499D01*
X135233497Y-93769737D01*
X135379179Y-93709394D01*
X135510289Y-93621789D01*
X135621789Y-93510289D01*
X135709394Y-93379179D01*
X135769737Y-93233497D01*
X135800500Y-93078842D01*
X135800500Y-92921158D01*
X135800500Y-92921155D01*
X135800499Y-92921153D01*
X135796391Y-92900500D01*
X135769737Y-92766503D01*
X135753961Y-92728415D01*
X135709397Y-92620827D01*
X135709390Y-92620814D01*
X135621789Y-92489711D01*
X135621786Y-92489707D01*
X135510292Y-92378213D01*
X135510284Y-92378207D01*
X135379181Y-92290607D01*
X135379179Y-92290606D01*
X135355521Y-92280806D01*
X135315295Y-92253927D01*
X135036819Y-91975451D01*
X135003334Y-91914128D01*
X135000500Y-91887770D01*
X135000500Y-90917847D01*
X135020185Y-90850808D01*
X135072989Y-90805053D01*
X135100309Y-90796230D01*
X135116291Y-90793050D01*
X135233497Y-90769737D01*
X135379179Y-90709394D01*
X135510289Y-90621789D01*
X135621789Y-90510289D01*
X135709394Y-90379179D01*
X135719191Y-90355524D01*
X135746069Y-90315297D01*
X141140208Y-84921158D01*
X146199500Y-84921158D01*
X146199500Y-84929001D01*
X146199500Y-85078846D01*
X146230261Y-85233489D01*
X146230264Y-85233501D01*
X146290602Y-85379172D01*
X146290609Y-85379185D01*
X146378210Y-85510288D01*
X146378213Y-85510292D01*
X146489707Y-85621786D01*
X146489711Y-85621789D01*
X146620814Y-85709390D01*
X146620827Y-85709397D01*
X146766498Y-85769735D01*
X146766503Y-85769737D01*
X146921153Y-85800499D01*
X146921156Y-85800500D01*
X146921158Y-85800500D01*
X147078844Y-85800500D01*
X147078845Y-85800499D01*
X147233497Y-85769737D01*
X147379179Y-85709394D01*
X147510289Y-85621789D01*
X147621789Y-85510289D01*
X147709394Y-85379179D01*
X147769737Y-85233497D01*
X147800500Y-85078842D01*
X147800500Y-84921158D01*
X147800500Y-84921155D01*
X147800499Y-84921153D01*
X147769739Y-84766511D01*
X147769738Y-84766508D01*
X147769737Y-84766503D01*
X147759937Y-84742844D01*
X147750500Y-84695396D01*
X147750500Y-82362229D01*
X147770185Y-82295190D01*
X147786819Y-82274548D01*
X148047460Y-82013907D01*
X148315297Y-81746069D01*
X148355522Y-81719192D01*
X148379179Y-81709394D01*
X148510289Y-81621789D01*
X148621789Y-81510289D01*
X148709394Y-81379179D01*
X148769737Y-81233497D01*
X148800500Y-81078842D01*
X148800500Y-80921158D01*
X148800500Y-80921155D01*
X148800499Y-80921153D01*
X148793181Y-80884363D01*
X148769737Y-80766503D01*
X148719194Y-80644480D01*
X148709397Y-80620827D01*
X148709390Y-80620814D01*
X148621789Y-80489711D01*
X148621786Y-80489707D01*
X148510292Y-80378213D01*
X148510288Y-80378210D01*
X148379185Y-80290609D01*
X148379172Y-80290602D01*
X148233501Y-80230264D01*
X148233489Y-80230261D01*
X148078845Y-80199500D01*
X148078842Y-80199500D01*
X147921158Y-80199500D01*
X147921155Y-80199500D01*
X147766510Y-80230261D01*
X147766498Y-80230264D01*
X147620827Y-80290602D01*
X147620814Y-80290609D01*
X147489711Y-80378210D01*
X147489707Y-80378213D01*
X147378213Y-80489707D01*
X147378207Y-80489715D01*
X147290607Y-80620818D01*
X147290606Y-80620819D01*
X147280805Y-80644480D01*
X147253927Y-80684703D01*
X146417047Y-81521584D01*
X146417045Y-81521586D01*
X146380381Y-81576462D01*
X146380379Y-81576465D01*
X146334919Y-81644499D01*
X146334912Y-81644511D01*
X146278343Y-81781082D01*
X146278340Y-81781092D01*
X146249500Y-81926079D01*
X146249500Y-84695396D01*
X146248049Y-84702687D01*
X146246408Y-84722916D01*
X146244079Y-84733147D01*
X146230263Y-84766503D01*
X146199500Y-84921158D01*
X141140208Y-84921158D01*
X148315295Y-77746070D01*
X148355519Y-77719193D01*
X148379179Y-77709394D01*
X148510289Y-77621789D01*
X148621789Y-77510289D01*
X148709394Y-77379179D01*
X148769737Y-77233497D01*
X148800500Y-77078842D01*
X148800500Y-76921158D01*
X148800500Y-76921155D01*
X148800499Y-76921153D01*
X148774678Y-76791344D01*
X148769737Y-76766503D01*
X148728641Y-76667288D01*
X148709397Y-76620827D01*
X148709390Y-76620814D01*
X148621789Y-76489711D01*
X148621786Y-76489707D01*
X148510292Y-76378213D01*
X148510288Y-76378210D01*
X148379185Y-76290609D01*
X148379172Y-76290602D01*
X148233501Y-76230264D01*
X148233489Y-76230261D01*
X148078845Y-76199500D01*
X148078842Y-76199500D01*
X147921158Y-76199500D01*
X147921155Y-76199500D01*
X147766510Y-76230261D01*
X147766498Y-76230264D01*
X147620827Y-76290602D01*
X147620814Y-76290609D01*
X147489711Y-76378210D01*
X147489707Y-76378213D01*
X147378213Y-76489707D01*
X147378207Y-76489715D01*
X147290607Y-76620818D01*
X147290605Y-76620822D01*
X147280805Y-76644480D01*
X147253927Y-76684704D01*
X135212181Y-88726451D01*
X135150858Y-88759936D01*
X135081166Y-88754952D01*
X135025233Y-88713080D01*
X135000816Y-88647616D01*
X135000500Y-88638770D01*
X135000500Y-85112228D01*
X135020185Y-85045189D01*
X135036814Y-85024552D01*
X144315295Y-75746070D01*
X144355519Y-75719193D01*
X144379179Y-75709394D01*
X144510289Y-75621789D01*
X144621789Y-75510289D01*
X144709394Y-75379179D01*
X144769737Y-75233497D01*
X144800500Y-75078842D01*
X144800500Y-74921158D01*
X144800500Y-74921155D01*
X144800499Y-74921153D01*
X144799529Y-74916275D01*
X144769737Y-74766503D01*
X144769735Y-74766498D01*
X144709397Y-74620827D01*
X144709390Y-74620814D01*
X144621789Y-74489711D01*
X144621786Y-74489707D01*
X144510292Y-74378213D01*
X144510288Y-74378210D01*
X144379185Y-74290609D01*
X144379172Y-74290602D01*
X144233501Y-74230264D01*
X144233489Y-74230261D01*
X144078845Y-74199500D01*
X144078842Y-74199500D01*
X143921158Y-74199500D01*
X143921155Y-74199500D01*
X143766510Y-74230261D01*
X143766498Y-74230264D01*
X143620827Y-74290602D01*
X143620814Y-74290609D01*
X143489711Y-74378210D01*
X143489707Y-74378213D01*
X143378213Y-74489707D01*
X143378207Y-74489715D01*
X143290607Y-74620818D01*
X143290605Y-74620822D01*
X143280805Y-74644480D01*
X143253927Y-74684704D01*
X136000538Y-81938092D01*
X135939215Y-81971577D01*
X135869523Y-81966593D01*
X135813590Y-81924721D01*
X135791240Y-81874602D01*
X135769739Y-81766511D01*
X135769738Y-81766508D01*
X135769737Y-81766503D01*
X135759937Y-81742844D01*
X135750500Y-81695396D01*
X135750500Y-77362229D01*
X135770185Y-77295190D01*
X135786819Y-77274548D01*
X136022594Y-77038773D01*
X136315297Y-76746069D01*
X136355522Y-76719192D01*
X136379179Y-76709394D01*
X136510289Y-76621789D01*
X136621789Y-76510289D01*
X136709394Y-76379179D01*
X136769737Y-76233497D01*
X136800500Y-76078842D01*
X136800500Y-75921158D01*
X136800500Y-75921155D01*
X136800499Y-75921153D01*
X136773200Y-75783913D01*
X136769737Y-75766503D01*
X136767018Y-75759938D01*
X136709397Y-75620827D01*
X136709390Y-75620814D01*
X136621789Y-75489711D01*
X136621786Y-75489707D01*
X136510292Y-75378213D01*
X136510288Y-75378210D01*
X136379185Y-75290609D01*
X136379172Y-75290602D01*
X136233501Y-75230264D01*
X136233489Y-75230261D01*
X136078845Y-75199500D01*
X136078842Y-75199500D01*
X135921158Y-75199500D01*
X135921155Y-75199500D01*
X135766510Y-75230261D01*
X135766498Y-75230264D01*
X135620827Y-75290602D01*
X135620814Y-75290609D01*
X135489711Y-75378210D01*
X135489707Y-75378213D01*
X135378213Y-75489707D01*
X135378207Y-75489715D01*
X135290607Y-75620818D01*
X135290606Y-75620819D01*
X135280805Y-75644480D01*
X135253927Y-75684703D01*
X134417049Y-76521582D01*
X134417045Y-76521586D01*
X134390826Y-76560829D01*
X134390825Y-76560831D01*
X134334914Y-76644507D01*
X134278343Y-76781082D01*
X134278340Y-76781092D01*
X134249500Y-76926079D01*
X134249500Y-81695396D01*
X134240062Y-81742844D01*
X134238726Y-81746072D01*
X134230262Y-81766506D01*
X134230260Y-81766511D01*
X134199500Y-81921153D01*
X134199500Y-82078846D01*
X134230261Y-82233489D01*
X134230264Y-82233501D01*
X134290602Y-82379172D01*
X134290609Y-82379185D01*
X134378210Y-82510288D01*
X134378213Y-82510292D01*
X134489707Y-82621786D01*
X134489711Y-82621789D01*
X134620814Y-82709390D01*
X134620827Y-82709397D01*
X134766498Y-82769735D01*
X134766503Y-82769737D01*
X134808128Y-82778016D01*
X134874602Y-82791240D01*
X134936513Y-82823625D01*
X134971088Y-82884341D01*
X134967348Y-82954110D01*
X134938092Y-83000538D01*
X133667047Y-84271584D01*
X133667045Y-84271586D01*
X133630697Y-84325989D01*
X133630695Y-84325992D01*
X133584919Y-84394499D01*
X133584912Y-84394511D01*
X133528343Y-84531082D01*
X133528340Y-84531092D01*
X133499500Y-84676079D01*
X133499500Y-84676082D01*
X133499500Y-92323918D01*
X133499500Y-92323920D01*
X133499499Y-92323920D01*
X131667127Y-92323920D01*
X129406819Y-90063612D01*
X129373334Y-90002289D01*
X129370500Y-89975931D01*
X129370500Y-87554604D01*
X129379939Y-87507151D01*
X129389737Y-87483497D01*
X129420500Y-87328842D01*
X129420500Y-87171158D01*
X129420500Y-87171155D01*
X129420499Y-87171153D01*
X129389737Y-87016503D01*
X129381520Y-86996666D01*
X129329397Y-86870827D01*
X129329390Y-86870814D01*
X129241789Y-86739711D01*
X129241786Y-86739707D01*
X129130292Y-86628213D01*
X129130288Y-86628210D01*
X128999185Y-86540609D01*
X128999172Y-86540602D01*
X128853501Y-86480264D01*
X128853489Y-86480261D01*
X128698845Y-86449500D01*
X128698842Y-86449500D01*
X128541158Y-86449500D01*
X128541155Y-86449500D01*
X128386510Y-86480261D01*
X128386498Y-86480264D01*
X128240827Y-86540602D01*
X128240814Y-86540609D01*
X128109711Y-86628210D01*
X128109707Y-86628213D01*
X127998213Y-86739707D01*
X127998210Y-86739711D01*
X127910609Y-86870814D01*
X127910602Y-86870827D01*
X127850264Y-87016498D01*
X127850261Y-87016510D01*
X127819500Y-87171153D01*
X127819500Y-87328846D01*
X127850261Y-87483489D01*
X127850263Y-87483497D01*
X127860061Y-87507151D01*
X127869500Y-87554604D01*
X127869500Y-90412079D01*
X127869500Y-90412081D01*
X127869499Y-90412081D01*
X127898340Y-90557068D01*
X127898343Y-90557078D01*
X127954913Y-90693651D01*
X127954914Y-90693652D01*
X127954916Y-90693656D01*
X127965432Y-90709394D01*
X127979430Y-90730343D01*
X127979431Y-90730345D01*
X128037049Y-90816578D01*
X139803425Y-102582954D01*
X139830540Y-102601070D01*
X139844099Y-102610130D01*
X139926344Y-102665084D01*
X140062926Y-102721658D01*
X140062930Y-102721658D01*
X140062931Y-102721659D01*
X140207918Y-102750500D01*
X140207921Y-102750500D01*
X146063869Y-102750500D01*
X146161411Y-102731096D01*
X146208862Y-102721658D01*
X146345444Y-102665084D01*
X146427689Y-102610130D01*
X146468365Y-102582952D01*
X147282952Y-101768365D01*
X147300311Y-101742384D01*
X147351922Y-101665144D01*
X147358502Y-101655294D01*
X147365084Y-101645444D01*
X147414525Y-101526083D01*
X147421659Y-101508861D01*
X147450500Y-101363866D01*
X147450500Y-101216031D01*
X147450500Y-98712840D01*
X147470185Y-98645801D01*
X147486819Y-98625159D01*
X149914209Y-96197769D01*
X157577087Y-88534890D01*
X157638408Y-88501407D01*
X157708100Y-88506391D01*
X157764033Y-88548263D01*
X157784555Y-88596809D01*
X157785797Y-88596511D01*
X157786934Y-88601247D01*
X157859897Y-88825802D01*
X157967087Y-89036174D01*
X158027338Y-89119104D01*
X158027340Y-89119105D01*
X158726212Y-88420233D01*
X158737482Y-88462292D01*
X158809890Y-88587708D01*
X158912292Y-88690110D01*
X159037708Y-88762518D01*
X159079765Y-88773787D01*
X158380893Y-89472658D01*
X158463828Y-89532914D01*
X158674197Y-89640102D01*
X158898752Y-89713065D01*
X158898751Y-89713065D01*
X159131948Y-89750000D01*
X159368052Y-89750000D01*
X159601247Y-89713065D01*
X159825802Y-89640102D01*
X160036163Y-89532918D01*
X160036169Y-89532914D01*
X160119104Y-89472658D01*
X160119105Y-89472658D01*
X159420233Y-88773787D01*
X159462292Y-88762518D01*
X159587708Y-88690110D01*
X159690110Y-88587708D01*
X159762518Y-88462292D01*
X159773787Y-88420234D01*
X160472658Y-89119105D01*
X160472658Y-89119104D01*
X160532914Y-89036169D01*
X160532918Y-89036163D01*
X160640102Y-88825802D01*
X160713065Y-88601247D01*
X160750000Y-88368052D01*
X160750000Y-88131947D01*
X160713065Y-87898752D01*
X160640102Y-87674197D01*
X160532914Y-87463828D01*
X160472658Y-87380894D01*
X160472658Y-87380893D01*
X159773787Y-88079765D01*
X159762518Y-88037708D01*
X159690110Y-87912292D01*
X159587708Y-87809890D01*
X159462292Y-87737482D01*
X159420233Y-87726212D01*
X160119105Y-87027340D01*
X160119104Y-87027338D01*
X160036174Y-86967087D01*
X159825802Y-86859897D01*
X159601247Y-86786934D01*
X159596511Y-86785797D01*
X159596879Y-86784261D01*
X159540022Y-86757294D01*
X159503103Y-86697975D01*
X159504114Y-86628112D01*
X159534890Y-86577087D01*
X161282952Y-84829026D01*
X161282952Y-84829025D01*
X161287260Y-84824718D01*
X161289142Y-84826600D01*
X161337320Y-84793741D01*
X161407163Y-84791828D01*
X161466954Y-84827978D01*
X161497709Y-84890715D01*
X161499500Y-84911717D01*
X161499500Y-105186000D01*
X161479815Y-105253039D01*
X161427011Y-105298794D01*
X161375500Y-105310000D01*
X113370000Y-105310000D01*
X113370000Y-111375500D01*
X113350315Y-111442539D01*
X113297511Y-111488294D01*
X113246000Y-111499500D01*
X77624500Y-111499500D01*
X77557461Y-111479815D01*
X77511706Y-111427011D01*
X77500500Y-111375500D01*
X77500500Y-64899983D01*
X81199500Y-64899983D01*
X81199500Y-67100001D01*
X81199501Y-67100018D01*
X81210000Y-67202796D01*
X81210001Y-67202799D01*
X81242205Y-67299983D01*
X81265186Y-67369334D01*
X81357288Y-67518656D01*
X81481344Y-67642712D01*
X81630666Y-67734814D01*
X81797203Y-67789999D01*
X81899991Y-67800500D01*
X84100008Y-67800499D01*
X84202797Y-67789999D01*
X84369334Y-67734814D01*
X84518656Y-67642712D01*
X84642712Y-67518656D01*
X84734814Y-67369334D01*
X84757795Y-67299981D01*
X84797566Y-67242538D01*
X84862082Y-67215715D01*
X84930858Y-67228030D01*
X84982058Y-67275573D01*
X84999500Y-67338987D01*
X84999500Y-70563765D01*
X84979815Y-70630804D01*
X84927011Y-70676559D01*
X84857853Y-70686503D01*
X84794297Y-70657478D01*
X84756523Y-70598700D01*
X84755737Y-70595902D01*
X84708606Y-70420007D01*
X84618284Y-70201951D01*
X84618282Y-70201948D01*
X84618280Y-70201943D01*
X84552291Y-70087648D01*
X84500273Y-69997550D01*
X84356592Y-69810301D01*
X84356587Y-69810295D01*
X84189704Y-69643412D01*
X84189697Y-69643406D01*
X84002454Y-69499730D01*
X84002453Y-69499729D01*
X84002450Y-69499727D01*
X83920957Y-69452677D01*
X83798056Y-69381719D01*
X83798045Y-69381714D01*
X83579993Y-69291394D01*
X83352010Y-69230306D01*
X83118020Y-69199501D01*
X83118017Y-69199500D01*
X83118011Y-69199500D01*
X82881989Y-69199500D01*
X82881983Y-69199500D01*
X82881979Y-69199501D01*
X82647989Y-69230306D01*
X82420006Y-69291394D01*
X82201954Y-69381714D01*
X82201943Y-69381719D01*
X81997545Y-69499730D01*
X81810302Y-69643406D01*
X81810295Y-69643412D01*
X81643412Y-69810295D01*
X81643406Y-69810302D01*
X81499730Y-69997545D01*
X81381719Y-70201943D01*
X81381714Y-70201954D01*
X81291394Y-70420006D01*
X81230306Y-70647989D01*
X81199501Y-70881979D01*
X81199500Y-70881995D01*
X81199500Y-71118004D01*
X81199501Y-71118020D01*
X81230306Y-71352010D01*
X81291394Y-71579993D01*
X81381714Y-71798045D01*
X81381719Y-71798056D01*
X81447690Y-71912319D01*
X81499727Y-72002450D01*
X81499729Y-72002453D01*
X81499730Y-72002454D01*
X81643406Y-72189697D01*
X81643412Y-72189704D01*
X81810295Y-72356587D01*
X81810301Y-72356592D01*
X81997550Y-72500273D01*
X82107731Y-72563886D01*
X82201943Y-72618280D01*
X82201948Y-72618282D01*
X82201951Y-72618284D01*
X82420007Y-72708606D01*
X82647986Y-72769693D01*
X82881989Y-72800500D01*
X82881996Y-72800500D01*
X83118004Y-72800500D01*
X83118011Y-72800500D01*
X83352014Y-72769693D01*
X83579993Y-72708606D01*
X83798049Y-72618284D01*
X84002450Y-72500273D01*
X84189699Y-72356592D01*
X84356592Y-72189699D01*
X84500273Y-72002450D01*
X84618284Y-71798049D01*
X84708606Y-71579993D01*
X84755726Y-71404139D01*
X84792090Y-71344480D01*
X84854937Y-71313951D01*
X84924312Y-71322246D01*
X84978190Y-71366731D01*
X84999465Y-71433283D01*
X84999500Y-71436234D01*
X84999500Y-75565699D01*
X84979815Y-75632738D01*
X84927011Y-75678493D01*
X84857853Y-75688437D01*
X84794297Y-75659412D01*
X84756523Y-75600634D01*
X84755725Y-75597792D01*
X84708129Y-75420162D01*
X84617839Y-75202180D01*
X84617834Y-75202171D01*
X84499855Y-74997828D01*
X84499854Y-74997827D01*
X84437277Y-74916275D01*
X83601041Y-75752511D01*
X83576022Y-75692110D01*
X83504888Y-75585649D01*
X83414351Y-75495112D01*
X83307890Y-75423978D01*
X83247488Y-75398958D01*
X84083723Y-74562721D01*
X84002172Y-74500145D01*
X84002171Y-74500144D01*
X83797828Y-74382165D01*
X83797819Y-74382160D01*
X83579836Y-74291870D01*
X83579838Y-74291870D01*
X83351914Y-74230799D01*
X83117985Y-74200000D01*
X82882014Y-74200000D01*
X82648085Y-74230799D01*
X82420162Y-74291870D01*
X82202180Y-74382160D01*
X82202171Y-74382165D01*
X81997828Y-74500144D01*
X81997818Y-74500150D01*
X81916275Y-74562720D01*
X81916275Y-74562721D01*
X82752512Y-75398958D01*
X82692110Y-75423978D01*
X82585649Y-75495112D01*
X82495112Y-75585649D01*
X82423978Y-75692110D01*
X82398958Y-75752511D01*
X81562721Y-74916275D01*
X81562720Y-74916275D01*
X81500150Y-74997818D01*
X81500144Y-74997828D01*
X81382165Y-75202171D01*
X81382160Y-75202180D01*
X81291870Y-75420162D01*
X81230799Y-75648085D01*
X81200000Y-75882014D01*
X81200000Y-76117985D01*
X81230799Y-76351914D01*
X81291870Y-76579837D01*
X81382160Y-76797819D01*
X81382165Y-76797828D01*
X81500144Y-77002171D01*
X81500145Y-77002172D01*
X81562721Y-77083723D01*
X82398958Y-76247487D01*
X82423978Y-76307890D01*
X82495112Y-76414351D01*
X82585649Y-76504888D01*
X82692110Y-76576022D01*
X82752511Y-76601041D01*
X81916275Y-77437277D01*
X81997827Y-77499854D01*
X81997828Y-77499855D01*
X82202171Y-77617834D01*
X82202180Y-77617839D01*
X82420163Y-77708129D01*
X82420161Y-77708129D01*
X82648085Y-77769200D01*
X82882014Y-77799999D01*
X82882029Y-77800000D01*
X83117971Y-77800000D01*
X83117985Y-77799999D01*
X83351914Y-77769200D01*
X83579837Y-77708129D01*
X83797819Y-77617839D01*
X83797828Y-77617834D01*
X84002181Y-77499850D01*
X84083723Y-77437279D01*
X84083723Y-77437276D01*
X83247487Y-76601041D01*
X83307890Y-76576022D01*
X83414351Y-76504888D01*
X83504888Y-76414351D01*
X83576022Y-76307890D01*
X83601041Y-76247487D01*
X84437276Y-77083723D01*
X84437279Y-77083723D01*
X84499850Y-77002181D01*
X84617834Y-76797828D01*
X84617839Y-76797819D01*
X84708129Y-76579837D01*
X84755725Y-76402207D01*
X84792090Y-76342546D01*
X84854937Y-76312017D01*
X84924312Y-76320312D01*
X84978190Y-76364797D01*
X84999465Y-76431349D01*
X84999500Y-76434300D01*
X84999500Y-85101625D01*
X84979815Y-85168664D01*
X84963181Y-85189306D01*
X84681086Y-85471400D01*
X84681080Y-85471407D01*
X84651245Y-85510287D01*
X84651246Y-85510288D01*
X84541388Y-85653457D01*
X84474255Y-85769737D01*
X84426657Y-85852178D01*
X84426652Y-85852187D01*
X84338845Y-86064172D01*
X84338842Y-86064182D01*
X84280725Y-86281081D01*
X84279452Y-86285831D01*
X84279451Y-86285835D01*
X84279451Y-86285837D01*
X84249500Y-86513327D01*
X84249500Y-86513335D01*
X84249500Y-99774734D01*
X84275967Y-99975771D01*
X84279452Y-100002239D01*
X84336231Y-100214144D01*
X84338842Y-100223887D01*
X84338845Y-100223894D01*
X84426652Y-100435881D01*
X84426657Y-100435891D01*
X84490571Y-100546593D01*
X84541389Y-100634612D01*
X84598772Y-100709394D01*
X84681078Y-100816659D01*
X84681084Y-100816666D01*
X89793497Y-105929078D01*
X89825591Y-105984665D01*
X89841602Y-106044419D01*
X89941951Y-106286685D01*
X89941958Y-106286700D01*
X90073075Y-106513803D01*
X90232718Y-106721851D01*
X90232726Y-106721860D01*
X90418140Y-106907274D01*
X90418148Y-106907281D01*
X90626196Y-107066924D01*
X90853299Y-107198041D01*
X90853309Y-107198046D01*
X91095571Y-107298394D01*
X91095581Y-107298398D01*
X91348884Y-107366270D01*
X91608880Y-107400500D01*
X91608887Y-107400500D01*
X91871113Y-107400500D01*
X91871120Y-107400500D01*
X92131116Y-107366270D01*
X92384419Y-107298398D01*
X92626697Y-107198043D01*
X92853803Y-107066924D01*
X93061851Y-106907282D01*
X93061855Y-106907277D01*
X93061860Y-106907274D01*
X93247274Y-106721860D01*
X93247277Y-106721855D01*
X93247282Y-106721851D01*
X93406924Y-106513803D01*
X93538043Y-106286697D01*
X93638398Y-106044419D01*
X93706270Y-105791116D01*
X93740500Y-105531120D01*
X93740500Y-105268880D01*
X93706270Y-105008884D01*
X93638398Y-104755581D01*
X93638394Y-104755571D01*
X93538046Y-104513309D01*
X93538041Y-104513299D01*
X93406924Y-104286196D01*
X93247281Y-104078148D01*
X93247274Y-104078140D01*
X93061860Y-103892726D01*
X93061851Y-103892718D01*
X92853803Y-103733075D01*
X92626700Y-103601958D01*
X92626685Y-103601951D01*
X92384419Y-103501602D01*
X92324665Y-103485591D01*
X92269078Y-103453497D01*
X87786819Y-98971238D01*
X87753334Y-98909915D01*
X87750500Y-98883557D01*
X87750500Y-89260780D01*
X87770185Y-89193741D01*
X87822989Y-89147986D01*
X87892147Y-89138042D01*
X87949985Y-89162404D01*
X88005476Y-89204984D01*
X88086196Y-89266924D01*
X88313299Y-89398041D01*
X88313309Y-89398046D01*
X88493439Y-89472658D01*
X88555581Y-89498398D01*
X88808884Y-89566270D01*
X89068880Y-89600500D01*
X89068887Y-89600500D01*
X89331113Y-89600500D01*
X89331120Y-89600500D01*
X89591116Y-89566270D01*
X89844419Y-89498398D01*
X90034135Y-89419815D01*
X90086690Y-89398046D01*
X90086690Y-89398045D01*
X90086697Y-89398043D01*
X90140269Y-89367112D01*
X90202269Y-89350500D01*
X92714727Y-89350500D01*
X92714734Y-89350500D01*
X92915771Y-89324032D01*
X92915772Y-89324032D01*
X92942229Y-89320550D01*
X92942234Y-89320548D01*
X92942239Y-89320548D01*
X93163887Y-89261158D01*
X93375888Y-89173344D01*
X93574612Y-89058611D01*
X93637531Y-89010331D01*
X93700452Y-88962051D01*
X93700452Y-88962049D01*
X93746140Y-88926993D01*
X93756655Y-88918925D01*
X93756666Y-88918915D01*
X99043679Y-83631902D01*
X104529851Y-78145729D01*
X104591172Y-78112246D01*
X104660864Y-78117230D01*
X104716797Y-78159102D01*
X104740003Y-78214014D01*
X104760830Y-78345514D01*
X104832601Y-78566400D01*
X104926406Y-78750500D01*
X104938039Y-78773331D01*
X105074551Y-78961224D01*
X105238776Y-79125449D01*
X105426669Y-79261961D01*
X105485288Y-79291829D01*
X105633599Y-79367398D01*
X105633601Y-79367398D01*
X105633604Y-79367400D01*
X105854486Y-79439169D01*
X105972668Y-79457886D01*
X106083871Y-79475500D01*
X106083876Y-79475500D01*
X106316129Y-79475500D01*
X106417502Y-79459443D01*
X106545514Y-79439169D01*
X106766396Y-79367400D01*
X106973331Y-79261961D01*
X107161224Y-79125449D01*
X107325449Y-78961224D01*
X107421768Y-78828652D01*
X107441412Y-78801615D01*
X107496742Y-78758949D01*
X107541730Y-78750500D01*
X112739874Y-78750500D01*
X112806913Y-78770185D01*
X112845412Y-78809403D01*
X112857285Y-78828652D01*
X112857288Y-78828656D01*
X112981344Y-78952712D01*
X113130666Y-79044814D01*
X113297203Y-79099999D01*
X113399991Y-79110500D01*
X114187769Y-79110499D01*
X114254808Y-79130183D01*
X114275450Y-79146818D01*
X115413181Y-80284549D01*
X115446666Y-80345872D01*
X115449500Y-80372230D01*
X115449500Y-81850500D01*
X115429815Y-81917539D01*
X115377011Y-81963294D01*
X115325500Y-81974500D01*
X114673992Y-81974500D01*
X114475880Y-82013907D01*
X114475872Y-82013909D01*
X114289247Y-82091212D01*
X114289237Y-82091217D01*
X114121281Y-82203441D01*
X113978441Y-82346281D01*
X113866217Y-82514237D01*
X113866212Y-82514247D01*
X113788909Y-82700872D01*
X113788907Y-82700878D01*
X113767694Y-82807525D01*
X113735309Y-82869435D01*
X113733758Y-82871014D01*
X110417049Y-86187724D01*
X110417049Y-86187725D01*
X110395278Y-86220308D01*
X110334913Y-86310650D01*
X110278343Y-86447224D01*
X110278340Y-86447234D01*
X110249500Y-86592221D01*
X110249500Y-89315500D01*
X110229815Y-89382539D01*
X110177011Y-89428294D01*
X110125500Y-89439500D01*
X105536080Y-89439500D01*
X105391092Y-89468340D01*
X105391082Y-89468343D01*
X105254511Y-89524912D01*
X105254498Y-89524919D01*
X105131584Y-89607048D01*
X105131580Y-89607051D01*
X104839912Y-89898719D01*
X104778589Y-89932204D01*
X104732833Y-89933511D01*
X104518097Y-89899500D01*
X104518092Y-89899500D01*
X104281908Y-89899500D01*
X104281903Y-89899500D01*
X104048631Y-89936446D01*
X103824003Y-90009433D01*
X103613566Y-90116657D01*
X103555902Y-90158553D01*
X103422490Y-90255483D01*
X103422488Y-90255485D01*
X103422487Y-90255485D01*
X103255485Y-90422487D01*
X103255485Y-90422488D01*
X103255483Y-90422490D01*
X103209087Y-90486349D01*
X103116657Y-90613566D01*
X103009433Y-90824003D01*
X102936446Y-91048631D01*
X102899500Y-91281902D01*
X102899500Y-91518097D01*
X102936446Y-91751368D01*
X103009433Y-91975996D01*
X103116657Y-92186433D01*
X103255483Y-92377510D01*
X103422490Y-92544517D01*
X103613567Y-92683343D01*
X103702016Y-92728410D01*
X103824003Y-92790566D01*
X103824005Y-92790566D01*
X103824008Y-92790568D01*
X103944412Y-92829689D01*
X104048631Y-92863553D01*
X104281903Y-92900500D01*
X104281908Y-92900500D01*
X104518097Y-92900500D01*
X104751368Y-92863553D01*
X104975992Y-92790568D01*
X105186433Y-92683343D01*
X105377510Y-92544517D01*
X105544517Y-92377510D01*
X105683343Y-92186433D01*
X105790568Y-91975992D01*
X105863553Y-91751368D01*
X105892944Y-91565800D01*
X105900500Y-91518097D01*
X105900500Y-91281902D01*
X105869139Y-91083898D01*
X105878094Y-91014605D01*
X105923090Y-90961153D01*
X105989841Y-90940513D01*
X105991612Y-90940500D01*
X110926082Y-90940500D01*
X112874582Y-90940500D01*
X112941621Y-90960185D01*
X112974900Y-90991615D01*
X113008028Y-91037212D01*
X113008032Y-91037217D01*
X113152786Y-91181971D01*
X113290332Y-91281902D01*
X113318390Y-91302287D01*
X113434607Y-91361503D01*
X113500776Y-91395218D01*
X113500778Y-91395218D01*
X113500781Y-91395220D01*
X113605137Y-91429127D01*
X113695465Y-91458477D01*
X113796557Y-91474488D01*
X113897648Y-91490500D01*
X113897649Y-91490500D01*
X114102351Y-91490500D01*
X114102352Y-91490500D01*
X114304534Y-91458477D01*
X114304539Y-91458475D01*
X114304541Y-91458475D01*
X114337180Y-91447870D01*
X114407021Y-91445873D01*
X114466855Y-91481953D01*
X114497684Y-91544653D01*
X114499500Y-91565800D01*
X114499500Y-96197769D01*
X114479815Y-96264808D01*
X114463181Y-96285450D01*
X114275450Y-96473181D01*
X114214127Y-96506666D01*
X114187769Y-96509500D01*
X113399998Y-96509500D01*
X113399980Y-96509501D01*
X113297203Y-96520000D01*
X113297200Y-96520001D01*
X113130668Y-96575185D01*
X113130663Y-96575187D01*
X112981342Y-96667289D01*
X112857289Y-96791342D01*
X112765187Y-96940663D01*
X112765186Y-96940666D01*
X112710001Y-97107203D01*
X112710001Y-97107204D01*
X112710000Y-97107204D01*
X112699500Y-97209983D01*
X112699500Y-97997770D01*
X112679815Y-98064809D01*
X112663181Y-98085451D01*
X109935451Y-100813181D01*
X109874128Y-100846666D01*
X109847770Y-100849500D01*
X105962471Y-100849500D01*
X105895432Y-100829815D01*
X105849677Y-100777011D01*
X105843256Y-100759613D01*
X105833911Y-100726956D01*
X105833909Y-100726953D01*
X105833909Y-100726951D01*
X105739698Y-100546593D01*
X105687684Y-100482803D01*
X105611109Y-100388890D01*
X105453409Y-100260304D01*
X105453410Y-100260304D01*
X105453407Y-100260302D01*
X105273049Y-100166091D01*
X105273048Y-100166090D01*
X105273045Y-100166089D01*
X105155829Y-100132550D01*
X105077418Y-100110114D01*
X105077415Y-100110113D01*
X105077413Y-100110113D01*
X105011102Y-100104217D01*
X104958037Y-100099500D01*
X104958032Y-100099500D01*
X103841971Y-100099500D01*
X103841965Y-100099500D01*
X103841964Y-100099501D01*
X103830316Y-100100536D01*
X103722584Y-100110113D01*
X103526954Y-100166089D01*
X103436772Y-100213196D01*
X103346593Y-100260302D01*
X103346591Y-100260303D01*
X103346590Y-100260304D01*
X103188890Y-100388890D01*
X103060304Y-100546590D01*
X102966089Y-100726954D01*
X102910114Y-100922583D01*
X102910113Y-100922586D01*
X102899500Y-101041966D01*
X102899500Y-102158028D01*
X102899501Y-102158034D01*
X102910113Y-102277415D01*
X102966089Y-102473045D01*
X102966090Y-102473048D01*
X102966091Y-102473049D01*
X103060302Y-102653407D01*
X103069824Y-102665085D01*
X103188890Y-102811109D01*
X103282803Y-102887684D01*
X103346593Y-102939698D01*
X103526951Y-103033909D01*
X103722582Y-103089886D01*
X103841963Y-103100500D01*
X104958036Y-103100499D01*
X105077418Y-103089886D01*
X105273049Y-103033909D01*
X105453407Y-102939698D01*
X105611109Y-102811109D01*
X105739698Y-102653407D01*
X105833909Y-102473049D01*
X105833911Y-102473043D01*
X105843256Y-102440387D01*
X105880624Y-102381349D01*
X105943978Y-102351887D01*
X105962471Y-102350500D01*
X110283920Y-102350500D01*
X110381462Y-102331096D01*
X110428913Y-102321658D01*
X110565495Y-102265084D01*
X110634595Y-102218913D01*
X110688416Y-102182952D01*
X113724548Y-99146817D01*
X113785871Y-99113333D01*
X113812229Y-99110499D01*
X114600002Y-99110499D01*
X114600008Y-99110499D01*
X114702797Y-99099999D01*
X114869334Y-99044814D01*
X115018656Y-98952712D01*
X115142712Y-98828656D01*
X115234814Y-98679334D01*
X115289999Y-98512797D01*
X115300500Y-98410009D01*
X115300499Y-97622229D01*
X115320183Y-97555191D01*
X115336818Y-97534549D01*
X115832947Y-97038421D01*
X115832948Y-97038420D01*
X115832948Y-97038419D01*
X115832952Y-97038416D01*
X115908009Y-96926083D01*
X115911303Y-96921153D01*
X121199500Y-96921153D01*
X121199500Y-97078846D01*
X121230261Y-97233489D01*
X121230264Y-97233501D01*
X121290602Y-97379172D01*
X121290609Y-97379185D01*
X121378210Y-97510288D01*
X121378213Y-97510292D01*
X121489707Y-97621786D01*
X121489711Y-97621789D01*
X121620814Y-97709390D01*
X121620827Y-97709397D01*
X121720060Y-97750500D01*
X121766503Y-97769737D01*
X121921153Y-97800499D01*
X121921156Y-97800500D01*
X121921158Y-97800500D01*
X122078844Y-97800500D01*
X122078845Y-97800499D01*
X122155152Y-97785320D01*
X122233488Y-97769739D01*
X122233489Y-97769738D01*
X122233497Y-97769737D01*
X122257155Y-97759937D01*
X122304604Y-97750500D01*
X122637770Y-97750500D01*
X122704809Y-97770185D01*
X122725451Y-97786819D01*
X125253926Y-100315293D01*
X125280805Y-100355519D01*
X125290603Y-100379172D01*
X125290606Y-100379178D01*
X125290609Y-100379185D01*
X125378210Y-100510288D01*
X125378213Y-100510292D01*
X125489707Y-100621786D01*
X125489711Y-100621789D01*
X125620814Y-100709390D01*
X125620827Y-100709397D01*
X125736938Y-100757491D01*
X125766503Y-100769737D01*
X125921153Y-100800499D01*
X125921156Y-100800500D01*
X125921158Y-100800500D01*
X126078844Y-100800500D01*
X126078845Y-100800499D01*
X126233497Y-100769737D01*
X126346166Y-100723067D01*
X126379172Y-100709397D01*
X126379172Y-100709396D01*
X126379179Y-100709394D01*
X126510289Y-100621789D01*
X126621789Y-100510289D01*
X126709394Y-100379179D01*
X126769737Y-100233497D01*
X126800500Y-100078842D01*
X126800500Y-99921158D01*
X126800500Y-99921155D01*
X126800499Y-99921153D01*
X126771374Y-99774734D01*
X126769737Y-99766503D01*
X126769735Y-99766498D01*
X126709397Y-99620827D01*
X126709390Y-99620814D01*
X126621789Y-99489711D01*
X126621786Y-99489707D01*
X126510292Y-99378213D01*
X126510288Y-99378210D01*
X126379185Y-99290609D01*
X126379180Y-99290607D01*
X126379179Y-99290606D01*
X126355519Y-99280805D01*
X126315293Y-99253926D01*
X123478421Y-96417052D01*
X123478414Y-96417046D01*
X123404729Y-96367812D01*
X123404729Y-96367813D01*
X123355491Y-96334913D01*
X123218917Y-96278343D01*
X123218907Y-96278340D01*
X123073920Y-96249500D01*
X123073918Y-96249500D01*
X122304604Y-96249500D01*
X122257155Y-96240062D01*
X122233497Y-96230263D01*
X122233493Y-96230262D01*
X122233488Y-96230260D01*
X122078845Y-96199500D01*
X122078842Y-96199500D01*
X121921158Y-96199500D01*
X121921155Y-96199500D01*
X121766510Y-96230261D01*
X121766498Y-96230264D01*
X121620827Y-96290602D01*
X121620814Y-96290609D01*
X121489711Y-96378210D01*
X121489707Y-96378213D01*
X121378213Y-96489707D01*
X121378210Y-96489711D01*
X121290609Y-96620814D01*
X121290602Y-96620827D01*
X121230264Y-96766498D01*
X121230261Y-96766510D01*
X121199500Y-96921153D01*
X115911303Y-96921153D01*
X115915084Y-96915495D01*
X115971658Y-96778913D01*
X116000500Y-96633918D01*
X116000500Y-88713391D01*
X116020185Y-88646352D01*
X116072989Y-88600597D01*
X116142147Y-88590653D01*
X116205703Y-88619678D01*
X116220357Y-88634730D01*
X116222868Y-88637790D01*
X116362214Y-88777136D01*
X116362218Y-88777139D01*
X116526079Y-88886628D01*
X116526092Y-88886635D01*
X116652770Y-88939106D01*
X116708165Y-88962051D01*
X116708169Y-88962051D01*
X116708170Y-88962052D01*
X116901456Y-89000500D01*
X116901459Y-89000500D01*
X120308078Y-89000500D01*
X120375117Y-89020185D01*
X120420872Y-89072989D01*
X120431436Y-89137103D01*
X120424500Y-89204984D01*
X120424500Y-90405001D01*
X120424501Y-90405018D01*
X120435000Y-90507796D01*
X120435001Y-90507799D01*
X120490185Y-90674331D01*
X120490187Y-90674336D01*
X120511811Y-90709394D01*
X120582288Y-90823656D01*
X120706344Y-90947712D01*
X120855666Y-91039814D01*
X121022203Y-91094999D01*
X121124991Y-91105500D01*
X122325008Y-91105499D01*
X122427797Y-91094999D01*
X122594334Y-91039814D01*
X122743656Y-90947712D01*
X122867712Y-90823656D01*
X122959814Y-90674334D01*
X122989698Y-90584149D01*
X122993225Y-90576858D01*
X123011458Y-90556732D01*
X123026919Y-90534401D01*
X123034572Y-90531219D01*
X123040136Y-90525078D01*
X123066356Y-90518004D01*
X123091435Y-90507578D01*
X123099592Y-90509038D01*
X123107594Y-90506880D01*
X123133478Y-90515106D01*
X123160211Y-90519893D01*
X123167222Y-90525830D01*
X123174182Y-90528042D01*
X123175943Y-90530168D01*
X123185524Y-90530922D01*
X123865000Y-89851446D01*
X123865000Y-89857661D01*
X123892259Y-89959394D01*
X123944920Y-90050606D01*
X124019394Y-90125080D01*
X124110606Y-90177741D01*
X124212339Y-90205000D01*
X124218553Y-90205000D01*
X123539076Y-90884474D01*
X123583650Y-90916859D01*
X123765968Y-91009755D01*
X123960582Y-91072990D01*
X124162683Y-91105000D01*
X124367317Y-91105000D01*
X124569417Y-91072990D01*
X124764031Y-91009755D01*
X124946349Y-90916859D01*
X124990921Y-90884474D01*
X124311447Y-90205000D01*
X124317661Y-90205000D01*
X124419394Y-90177741D01*
X124510606Y-90125080D01*
X124585080Y-90050606D01*
X124637741Y-89959394D01*
X124665000Y-89857661D01*
X124665000Y-89851447D01*
X125344474Y-90530921D01*
X125376859Y-90486349D01*
X125469755Y-90304031D01*
X125532990Y-90109417D01*
X125565000Y-89907317D01*
X125565000Y-89702682D01*
X125532990Y-89500582D01*
X125469755Y-89305968D01*
X125376859Y-89123650D01*
X125344474Y-89079077D01*
X125344474Y-89079076D01*
X124665000Y-89758551D01*
X124665000Y-89752339D01*
X124637741Y-89650606D01*
X124585080Y-89559394D01*
X124510606Y-89484920D01*
X124419394Y-89432259D01*
X124317661Y-89405000D01*
X124311446Y-89405000D01*
X124990922Y-88725524D01*
X124990921Y-88725523D01*
X124946359Y-88693147D01*
X124946350Y-88693141D01*
X124764031Y-88600244D01*
X124569417Y-88537009D01*
X124367317Y-88505000D01*
X124209280Y-88505000D01*
X124142241Y-88485315D01*
X124096486Y-88432511D01*
X124086542Y-88363353D01*
X124115567Y-88299797D01*
X124121584Y-88293334D01*
X128777139Y-83637781D01*
X128886631Y-83473914D01*
X128962051Y-83291836D01*
X129000500Y-83098540D01*
X129000500Y-82901460D01*
X129000500Y-82901457D01*
X129000499Y-82901455D01*
X128989153Y-82844417D01*
X128962051Y-82708164D01*
X128886631Y-82526086D01*
X128886629Y-82526083D01*
X128886627Y-82526079D01*
X128777139Y-82362219D01*
X128777136Y-82362215D01*
X128637784Y-82222863D01*
X128637780Y-82222860D01*
X128473920Y-82113372D01*
X128473910Y-82113367D01*
X128291836Y-82037949D01*
X128291828Y-82037947D01*
X128098543Y-81999500D01*
X128098540Y-81999500D01*
X127901460Y-81999500D01*
X127901457Y-81999500D01*
X127708171Y-82037947D01*
X127708163Y-82037949D01*
X127526089Y-82113367D01*
X127526079Y-82113372D01*
X127362219Y-82222860D01*
X127362215Y-82222863D01*
X122621899Y-86963181D01*
X122560576Y-86996666D01*
X122534218Y-86999500D01*
X117074500Y-86999500D01*
X117007461Y-86979815D01*
X116961706Y-86927011D01*
X116950500Y-86875500D01*
X116950500Y-81921153D01*
X118199500Y-81921153D01*
X118199500Y-82078846D01*
X118230261Y-82233489D01*
X118230264Y-82233501D01*
X118290602Y-82379172D01*
X118290609Y-82379185D01*
X118378210Y-82510288D01*
X118378213Y-82510292D01*
X118489707Y-82621786D01*
X118489711Y-82621789D01*
X118620814Y-82709390D01*
X118620827Y-82709397D01*
X118766498Y-82769735D01*
X118766503Y-82769737D01*
X118921153Y-82800499D01*
X118921156Y-82800500D01*
X118921158Y-82800500D01*
X119078844Y-82800500D01*
X119078845Y-82800499D01*
X119233497Y-82769737D01*
X119379179Y-82709394D01*
X119510289Y-82621789D01*
X119621789Y-82510289D01*
X119709394Y-82379179D01*
X119719191Y-82355524D01*
X119746069Y-82315297D01*
X120239140Y-81822226D01*
X120300461Y-81788743D01*
X120370153Y-81793727D01*
X120426086Y-81835599D01*
X120450503Y-81901063D01*
X120449292Y-81929307D01*
X120425000Y-82082682D01*
X120425000Y-82287317D01*
X120457009Y-82489417D01*
X120520244Y-82684031D01*
X120613141Y-82866350D01*
X120613147Y-82866359D01*
X120645523Y-82910921D01*
X120645524Y-82910922D01*
X121325000Y-82231446D01*
X121325000Y-82237661D01*
X121352259Y-82339394D01*
X121404920Y-82430606D01*
X121479394Y-82505080D01*
X121570606Y-82557741D01*
X121672339Y-82585000D01*
X121678553Y-82585000D01*
X120999076Y-83264474D01*
X121043650Y-83296859D01*
X121225968Y-83389755D01*
X121420582Y-83452990D01*
X121622683Y-83485000D01*
X121827317Y-83485000D01*
X122029417Y-83452990D01*
X122224031Y-83389755D01*
X122406349Y-83296859D01*
X122450921Y-83264474D01*
X121771447Y-82585000D01*
X121777661Y-82585000D01*
X121879394Y-82557741D01*
X121970606Y-82505080D01*
X122045080Y-82430606D01*
X122097741Y-82339394D01*
X122125000Y-82237661D01*
X122125000Y-82231447D01*
X122804474Y-82910921D01*
X122836861Y-82866347D01*
X122836861Y-82866346D01*
X122884234Y-82773371D01*
X122932208Y-82722575D01*
X123000028Y-82705779D01*
X123066164Y-82728316D01*
X123105203Y-82773369D01*
X123152713Y-82866611D01*
X123273028Y-83032213D01*
X123417786Y-83176971D01*
X123538226Y-83264474D01*
X123583390Y-83297287D01*
X123699607Y-83356503D01*
X123765776Y-83390218D01*
X123765778Y-83390218D01*
X123765781Y-83390220D01*
X123870137Y-83424127D01*
X123960465Y-83453477D01*
X124061557Y-83469488D01*
X124162648Y-83485500D01*
X124162649Y-83485500D01*
X124367351Y-83485500D01*
X124367352Y-83485500D01*
X124569534Y-83453477D01*
X124764219Y-83390220D01*
X124946610Y-83297287D01*
X125039590Y-83229732D01*
X125112213Y-83176971D01*
X125112215Y-83176968D01*
X125112219Y-83176966D01*
X125256966Y-83032219D01*
X125256968Y-83032215D01*
X125256971Y-83032213D01*
X125317874Y-82948386D01*
X125377287Y-82866610D01*
X125470220Y-82684219D01*
X125533477Y-82489534D01*
X125565500Y-82287352D01*
X125565500Y-82082648D01*
X125554612Y-82013907D01*
X125533477Y-81880465D01*
X125496448Y-81766503D01*
X125470220Y-81685781D01*
X125470218Y-81685778D01*
X125470218Y-81685776D01*
X125436503Y-81619607D01*
X125377287Y-81503390D01*
X125367346Y-81489707D01*
X125256971Y-81337786D01*
X125112213Y-81193028D01*
X124946613Y-81072715D01*
X124946612Y-81072714D01*
X124946610Y-81072713D01*
X124889653Y-81043691D01*
X124764223Y-80979781D01*
X124569534Y-80916522D01*
X124394995Y-80888878D01*
X124367352Y-80884500D01*
X124162648Y-80884500D01*
X124106972Y-80893318D01*
X124037679Y-80884363D01*
X123999894Y-80858526D01*
X123493421Y-80352052D01*
X123493414Y-80352046D01*
X123419729Y-80302812D01*
X123419729Y-80302813D01*
X123370495Y-80269916D01*
X123370492Y-80269914D01*
X123370491Y-80269914D01*
X123296005Y-80239061D01*
X123241601Y-80195220D01*
X123219536Y-80128926D01*
X123236815Y-80061227D01*
X123287952Y-80013616D01*
X123343457Y-80000500D01*
X132098543Y-80000500D01*
X132228582Y-79974632D01*
X132291835Y-79962051D01*
X132473914Y-79886632D01*
X132637782Y-79777139D01*
X132777139Y-79637782D01*
X132886632Y-79473914D01*
X132962051Y-79291835D01*
X132995148Y-79125449D01*
X133000500Y-79098543D01*
X133000500Y-78901456D01*
X132962052Y-78708170D01*
X132962051Y-78708169D01*
X132962051Y-78708165D01*
X132962049Y-78708160D01*
X132886635Y-78526092D01*
X132886628Y-78526079D01*
X132777139Y-78362218D01*
X132777136Y-78362214D01*
X132637785Y-78222863D01*
X132637781Y-78222860D01*
X132473920Y-78113371D01*
X132473907Y-78113364D01*
X132291839Y-78037950D01*
X132291829Y-78037947D01*
X132098543Y-77999500D01*
X132098541Y-77999500D01*
X131917848Y-77999500D01*
X131850809Y-77979815D01*
X131805054Y-77927011D01*
X131796231Y-77899692D01*
X131769738Y-77766508D01*
X131769737Y-77766507D01*
X131769737Y-77766503D01*
X131754050Y-77728631D01*
X131709397Y-77620827D01*
X131709390Y-77620814D01*
X131621789Y-77489711D01*
X131621786Y-77489707D01*
X131510292Y-77378213D01*
X131510288Y-77378210D01*
X131379185Y-77290609D01*
X131379180Y-77290607D01*
X131379179Y-77290606D01*
X131355519Y-77280805D01*
X131315293Y-77253926D01*
X130298548Y-76237180D01*
X130265063Y-76175857D01*
X130270047Y-76106165D01*
X130311919Y-76050232D01*
X130377383Y-76025815D01*
X130386229Y-76025499D01*
X130795002Y-76025499D01*
X130795008Y-76025499D01*
X130897797Y-76014999D01*
X131064334Y-75959814D01*
X131213656Y-75867712D01*
X131337712Y-75743656D01*
X131429814Y-75594334D01*
X131459698Y-75504149D01*
X131463225Y-75496858D01*
X131481458Y-75476732D01*
X131496919Y-75454401D01*
X131504572Y-75451219D01*
X131510136Y-75445078D01*
X131536356Y-75438004D01*
X131561435Y-75427578D01*
X131569592Y-75429038D01*
X131577594Y-75426880D01*
X131603478Y-75435106D01*
X131630211Y-75439893D01*
X131637222Y-75445830D01*
X131644182Y-75448042D01*
X131645943Y-75450168D01*
X131655524Y-75450922D01*
X132335000Y-74771446D01*
X132335000Y-74777661D01*
X132362259Y-74879394D01*
X132414920Y-74970606D01*
X132489394Y-75045080D01*
X132580606Y-75097741D01*
X132682339Y-75125000D01*
X132688553Y-75125000D01*
X132009076Y-75804474D01*
X132053650Y-75836859D01*
X132235968Y-75929755D01*
X132430582Y-75992990D01*
X132632683Y-76025000D01*
X132837317Y-76025000D01*
X133039417Y-75992990D01*
X133234031Y-75929755D01*
X133416349Y-75836859D01*
X133460921Y-75804474D01*
X132781447Y-75125000D01*
X132787661Y-75125000D01*
X132889394Y-75097741D01*
X132980606Y-75045080D01*
X133055080Y-74970606D01*
X133107741Y-74879394D01*
X133135000Y-74777661D01*
X133135000Y-74771447D01*
X133814474Y-75450921D01*
X133846859Y-75406349D01*
X133939755Y-75224031D01*
X134002990Y-75029417D01*
X134035000Y-74827317D01*
X134035000Y-74622682D01*
X134002990Y-74420582D01*
X133939755Y-74225968D01*
X133846859Y-74043650D01*
X133814474Y-73999077D01*
X133814474Y-73999076D01*
X133135000Y-74678551D01*
X133135000Y-74672339D01*
X133107741Y-74570606D01*
X133055080Y-74479394D01*
X132980606Y-74404920D01*
X132889394Y-74352259D01*
X132787661Y-74325000D01*
X132781446Y-74325000D01*
X133460922Y-73645524D01*
X133460921Y-73645523D01*
X133416359Y-73613147D01*
X133416350Y-73613141D01*
X133234031Y-73520244D01*
X133039417Y-73457009D01*
X132837317Y-73425000D01*
X132632683Y-73425000D01*
X132430582Y-73457009D01*
X132235968Y-73520244D01*
X132053644Y-73613143D01*
X132009077Y-73645523D01*
X132009077Y-73645524D01*
X132688554Y-74325000D01*
X132682339Y-74325000D01*
X132580606Y-74352259D01*
X132489394Y-74404920D01*
X132414920Y-74479394D01*
X132362259Y-74570606D01*
X132335000Y-74672339D01*
X132335000Y-74678553D01*
X131655524Y-73999077D01*
X131638345Y-74000429D01*
X131619840Y-74014699D01*
X131615786Y-74015047D01*
X131612410Y-74017324D01*
X131581261Y-74018012D01*
X131550227Y-74020678D01*
X131546626Y-74018778D01*
X131542557Y-74018868D01*
X131515985Y-74002610D01*
X131488432Y-73988072D01*
X131485434Y-73983918D01*
X131482958Y-73982403D01*
X131477124Y-73972402D01*
X131463225Y-73953140D01*
X131459696Y-73945844D01*
X131429814Y-73855666D01*
X131337712Y-73706344D01*
X131213656Y-73582288D01*
X131064334Y-73490186D01*
X130897797Y-73435001D01*
X130897795Y-73435000D01*
X130795010Y-73424500D01*
X129594998Y-73424500D01*
X129594981Y-73424501D01*
X129492203Y-73435000D01*
X129492200Y-73435001D01*
X129325668Y-73490185D01*
X129325663Y-73490187D01*
X129176342Y-73582289D01*
X129052289Y-73706342D01*
X128960187Y-73855663D01*
X128960186Y-73855666D01*
X128905001Y-74022203D01*
X128905001Y-74022204D01*
X128905000Y-74022204D01*
X128894500Y-74124983D01*
X128894500Y-74533769D01*
X128874815Y-74600808D01*
X128822011Y-74646563D01*
X128752853Y-74656507D01*
X128689297Y-74627482D01*
X128682819Y-74621450D01*
X128478421Y-74417052D01*
X128478414Y-74417046D01*
X128404729Y-74367812D01*
X128404729Y-74367813D01*
X128355491Y-74334913D01*
X128218917Y-74278343D01*
X128218907Y-74278340D01*
X128073920Y-74249500D01*
X128073918Y-74249500D01*
X125304604Y-74249500D01*
X125257155Y-74240062D01*
X125233497Y-74230263D01*
X125233493Y-74230262D01*
X125233488Y-74230260D01*
X125078845Y-74199500D01*
X125078842Y-74199500D01*
X124921158Y-74199500D01*
X124921155Y-74199500D01*
X124766510Y-74230261D01*
X124766498Y-74230264D01*
X124620827Y-74290602D01*
X124620814Y-74290609D01*
X124489711Y-74378210D01*
X124489707Y-74378213D01*
X124378213Y-74489707D01*
X124378210Y-74489711D01*
X124290609Y-74620814D01*
X124290602Y-74620827D01*
X124230264Y-74766498D01*
X124230261Y-74766510D01*
X124199500Y-74921153D01*
X124199500Y-75078846D01*
X124230261Y-75233489D01*
X124230264Y-75233501D01*
X124290602Y-75379172D01*
X124290609Y-75379185D01*
X124378210Y-75510288D01*
X124378213Y-75510292D01*
X124489707Y-75621786D01*
X124489711Y-75621789D01*
X124620814Y-75709390D01*
X124620827Y-75709397D01*
X124720060Y-75750500D01*
X124766503Y-75769737D01*
X124921153Y-75800499D01*
X124921156Y-75800500D01*
X124921158Y-75800500D01*
X125078844Y-75800500D01*
X125078845Y-75800499D01*
X125162265Y-75783906D01*
X125233488Y-75769739D01*
X125233489Y-75769738D01*
X125233497Y-75769737D01*
X125257155Y-75759937D01*
X125304604Y-75750500D01*
X127637770Y-75750500D01*
X127704809Y-75770185D01*
X127725451Y-75786819D01*
X128813185Y-76874553D01*
X129726452Y-77787819D01*
X129759937Y-77849142D01*
X129754953Y-77918834D01*
X129713081Y-77974767D01*
X129647617Y-77999184D01*
X129638771Y-77999500D01*
X119901457Y-77999500D01*
X119708170Y-78037947D01*
X119708160Y-78037950D01*
X119526092Y-78113364D01*
X119526079Y-78113371D01*
X119362218Y-78222860D01*
X119362214Y-78222863D01*
X119222863Y-78362214D01*
X119222860Y-78362218D01*
X119113371Y-78526079D01*
X119113364Y-78526092D01*
X119037950Y-78708160D01*
X119037947Y-78708170D01*
X118999500Y-78901456D01*
X118999500Y-78901459D01*
X118999500Y-79098541D01*
X118999500Y-79098543D01*
X118999499Y-79098543D01*
X119037947Y-79291829D01*
X119037950Y-79291839D01*
X119113364Y-79473907D01*
X119113371Y-79473920D01*
X119222860Y-79637781D01*
X119222863Y-79637785D01*
X119362214Y-79777136D01*
X119362218Y-79777139D01*
X119526079Y-79886628D01*
X119526092Y-79886635D01*
X119708160Y-79962049D01*
X119708165Y-79962051D01*
X119803379Y-79980990D01*
X119810274Y-79982362D01*
X119872185Y-80014747D01*
X119906759Y-80075462D01*
X119903020Y-80145232D01*
X119862154Y-80201904D01*
X119833536Y-80218540D01*
X119709508Y-80269914D01*
X119709498Y-80269919D01*
X119586584Y-80352048D01*
X119586580Y-80352051D01*
X118684703Y-81253927D01*
X118644480Y-81280805D01*
X118620819Y-81290606D01*
X118620818Y-81290607D01*
X118489715Y-81378207D01*
X118489707Y-81378213D01*
X118378213Y-81489707D01*
X118378210Y-81489711D01*
X118290609Y-81620814D01*
X118290602Y-81620827D01*
X118230264Y-81766498D01*
X118230261Y-81766510D01*
X118199500Y-81921153D01*
X116950500Y-81921153D01*
X116950500Y-79936079D01*
X116921659Y-79791092D01*
X116921658Y-79791091D01*
X116921658Y-79791087D01*
X116865084Y-79654505D01*
X116832186Y-79605270D01*
X116832185Y-79605268D01*
X116782956Y-79531589D01*
X116782952Y-79531584D01*
X115336818Y-78085450D01*
X115303333Y-78024127D01*
X115300499Y-77997769D01*
X115300499Y-77622230D01*
X115320184Y-77555191D01*
X115336818Y-77534549D01*
X116827948Y-76043419D01*
X116827951Y-76043416D01*
X116910084Y-75920495D01*
X116966658Y-75783913D01*
X116966658Y-75783910D01*
X116966660Y-75783906D01*
X116974666Y-75743657D01*
X116974666Y-75743656D01*
X116995500Y-75638920D01*
X116995500Y-67002682D01*
X128895000Y-67002682D01*
X128895000Y-67207317D01*
X128927009Y-67409417D01*
X128990244Y-67604031D01*
X129083141Y-67786350D01*
X129083147Y-67786359D01*
X129115523Y-67830921D01*
X129115524Y-67830922D01*
X129795000Y-67151446D01*
X129795000Y-67157661D01*
X129822259Y-67259394D01*
X129874920Y-67350606D01*
X129949394Y-67425080D01*
X130040606Y-67477741D01*
X130142339Y-67505000D01*
X130148553Y-67505000D01*
X129469076Y-68184474D01*
X129513650Y-68216859D01*
X129695968Y-68309755D01*
X129890582Y-68372990D01*
X130092683Y-68405000D01*
X130297317Y-68405000D01*
X130499417Y-68372990D01*
X130694031Y-68309755D01*
X130876349Y-68216859D01*
X130920921Y-68184474D01*
X130241447Y-67505000D01*
X130247661Y-67505000D01*
X130349394Y-67477741D01*
X130440606Y-67425080D01*
X130515080Y-67350606D01*
X130567741Y-67259394D01*
X130595000Y-67157661D01*
X130595000Y-67151447D01*
X131274474Y-67830921D01*
X131306861Y-67786347D01*
X131306861Y-67786346D01*
X131354234Y-67693371D01*
X131402208Y-67642575D01*
X131470028Y-67625779D01*
X131536164Y-67648316D01*
X131575203Y-67693369D01*
X131622713Y-67786611D01*
X131743028Y-67952213D01*
X131887786Y-68096971D01*
X132008226Y-68184474D01*
X132053390Y-68217287D01*
X132169607Y-68276503D01*
X132235776Y-68310218D01*
X132235778Y-68310218D01*
X132235781Y-68310220D01*
X132340137Y-68344127D01*
X132430465Y-68373477D01*
X132531557Y-68389488D01*
X132632648Y-68405500D01*
X132632649Y-68405500D01*
X132837351Y-68405500D01*
X132837352Y-68405500D01*
X133039534Y-68373477D01*
X133234219Y-68310220D01*
X133416610Y-68217287D01*
X133524519Y-68138887D01*
X133582213Y-68096971D01*
X133582215Y-68096968D01*
X133582219Y-68096966D01*
X133726966Y-67952219D01*
X133726968Y-67952215D01*
X133726971Y-67952213D01*
X133779732Y-67879590D01*
X133847287Y-67786610D01*
X133940220Y-67604219D01*
X134003477Y-67409534D01*
X134035500Y-67207352D01*
X134035500Y-67002648D01*
X134025926Y-66942200D01*
X134003477Y-66800465D01*
X133953381Y-66646286D01*
X133940220Y-66605781D01*
X133940218Y-66605778D01*
X133940218Y-66605776D01*
X133894794Y-66516628D01*
X133847287Y-66423390D01*
X133815092Y-66379077D01*
X133726971Y-66257786D01*
X133582213Y-66113028D01*
X133416613Y-65992715D01*
X133416612Y-65992714D01*
X133416610Y-65992713D01*
X133359653Y-65963691D01*
X133234223Y-65899781D01*
X133039534Y-65836522D01*
X132864995Y-65808878D01*
X132837352Y-65804500D01*
X132632648Y-65804500D01*
X132608329Y-65808351D01*
X132430465Y-65836522D01*
X132235776Y-65899781D01*
X132053386Y-65992715D01*
X131887786Y-66113028D01*
X131743028Y-66257786D01*
X131622713Y-66423388D01*
X131575203Y-66516630D01*
X131527228Y-66567426D01*
X131459407Y-66584220D01*
X131393272Y-66561682D01*
X131354234Y-66516628D01*
X131306861Y-66423652D01*
X131274474Y-66379077D01*
X131274474Y-66379076D01*
X130595000Y-67058551D01*
X130595000Y-67052339D01*
X130567741Y-66950606D01*
X130515080Y-66859394D01*
X130440606Y-66784920D01*
X130349394Y-66732259D01*
X130247661Y-66705000D01*
X130241446Y-66705000D01*
X130920922Y-66025524D01*
X130920921Y-66025523D01*
X130876359Y-65993147D01*
X130876350Y-65993141D01*
X130694031Y-65900244D01*
X130499417Y-65837009D01*
X130297317Y-65805000D01*
X130092683Y-65805000D01*
X129890582Y-65837009D01*
X129695968Y-65900244D01*
X129513644Y-65993143D01*
X129469077Y-66025523D01*
X129469077Y-66025524D01*
X130148554Y-66705000D01*
X130142339Y-66705000D01*
X130040606Y-66732259D01*
X129949394Y-66784920D01*
X129874920Y-66859394D01*
X129822259Y-66950606D01*
X129795000Y-67052339D01*
X129795000Y-67058553D01*
X129115524Y-66379077D01*
X129115523Y-66379077D01*
X129083143Y-66423644D01*
X128990244Y-66605968D01*
X128927009Y-66800582D01*
X128895000Y-67002682D01*
X116995500Y-67002682D01*
X116995500Y-64909729D01*
X117015185Y-64842690D01*
X117031814Y-64822053D01*
X123354873Y-58498993D01*
X123416194Y-58465510D01*
X123470950Y-58468456D01*
X123471514Y-58466108D01*
X123476253Y-58467245D01*
X123476254Y-58467245D01*
X123476257Y-58467246D01*
X123686213Y-58500500D01*
X123686214Y-58500500D01*
X123898786Y-58500500D01*
X123898787Y-58500500D01*
X124108743Y-58467246D01*
X124310912Y-58401557D01*
X124500316Y-58305051D01*
X124565393Y-58257770D01*
X124672286Y-58180109D01*
X124672288Y-58180106D01*
X124672292Y-58180104D01*
X124822604Y-58029792D01*
X124822606Y-58029788D01*
X124822609Y-58029786D01*
X124947548Y-57857820D01*
X124947547Y-57857820D01*
X124947551Y-57857816D01*
X125044057Y-57668412D01*
X125109746Y-57466243D01*
X125143000Y-57256287D01*
X125143000Y-56743713D01*
X125109746Y-56533757D01*
X125044057Y-56331588D01*
X124947551Y-56142184D01*
X124947549Y-56142181D01*
X124947548Y-56142179D01*
X124822609Y-55970213D01*
X124672294Y-55819898D01*
X124672288Y-55819893D01*
X124594115Y-55763097D01*
X124551449Y-55707767D01*
X124543000Y-55662779D01*
X124543000Y-54519729D01*
X124562685Y-54452690D01*
X124579314Y-54432053D01*
X125879420Y-53131947D01*
X149250000Y-53131947D01*
X149250000Y-53368052D01*
X149286934Y-53601247D01*
X149359897Y-53825802D01*
X149467087Y-54036174D01*
X149527338Y-54119104D01*
X149527340Y-54119105D01*
X150226212Y-53420233D01*
X150237482Y-53462292D01*
X150309890Y-53587708D01*
X150412292Y-53690110D01*
X150537708Y-53762518D01*
X150579765Y-53773787D01*
X149880893Y-54472658D01*
X149963828Y-54532914D01*
X150174197Y-54640102D01*
X150398752Y-54713065D01*
X150398751Y-54713065D01*
X150631948Y-54750000D01*
X150868052Y-54750000D01*
X151101247Y-54713065D01*
X151325802Y-54640102D01*
X151536163Y-54532918D01*
X151536169Y-54532914D01*
X151619104Y-54472658D01*
X151619105Y-54472658D01*
X150920233Y-53773787D01*
X150962292Y-53762518D01*
X151087708Y-53690110D01*
X151190110Y-53587708D01*
X151262518Y-53462292D01*
X151273787Y-53420234D01*
X151972658Y-54119105D01*
X151972658Y-54119104D01*
X152032914Y-54036169D01*
X152032918Y-54036163D01*
X152140102Y-53825802D01*
X152213065Y-53601247D01*
X152250000Y-53368052D01*
X152250000Y-53131947D01*
X155750000Y-53131947D01*
X155750000Y-53368052D01*
X155786934Y-53601247D01*
X155859897Y-53825802D01*
X155967087Y-54036174D01*
X156027338Y-54119104D01*
X156027340Y-54119105D01*
X156726212Y-53420233D01*
X156737482Y-53462292D01*
X156809890Y-53587708D01*
X156912292Y-53690110D01*
X157037708Y-53762518D01*
X157079765Y-53773787D01*
X156380893Y-54472658D01*
X156463828Y-54532914D01*
X156674197Y-54640102D01*
X156898752Y-54713065D01*
X156898751Y-54713065D01*
X157131948Y-54750000D01*
X157368052Y-54750000D01*
X157601247Y-54713065D01*
X157825802Y-54640102D01*
X158036163Y-54532918D01*
X158036169Y-54532914D01*
X158119104Y-54472658D01*
X158119105Y-54472658D01*
X157420233Y-53773787D01*
X157462292Y-53762518D01*
X157587708Y-53690110D01*
X157690110Y-53587708D01*
X157762518Y-53462292D01*
X157773787Y-53420234D01*
X158472658Y-54119105D01*
X158472658Y-54119104D01*
X158532914Y-54036169D01*
X158532918Y-54036163D01*
X158640102Y-53825802D01*
X158713065Y-53601247D01*
X158750000Y-53368052D01*
X158750000Y-53131947D01*
X158713065Y-52898752D01*
X158640102Y-52674197D01*
X158532914Y-52463828D01*
X158472658Y-52380894D01*
X158472658Y-52380893D01*
X157773787Y-53079765D01*
X157762518Y-53037708D01*
X157690110Y-52912292D01*
X157587708Y-52809890D01*
X157462292Y-52737482D01*
X157420234Y-52726212D01*
X158119105Y-52027340D01*
X158119104Y-52027338D01*
X158036174Y-51967087D01*
X157825802Y-51859897D01*
X157601247Y-51786934D01*
X157601248Y-51786934D01*
X157368052Y-51750000D01*
X157131948Y-51750000D01*
X156898752Y-51786934D01*
X156674197Y-51859897D01*
X156463830Y-51967084D01*
X156380894Y-52027340D01*
X157079766Y-52726212D01*
X157037708Y-52737482D01*
X156912292Y-52809890D01*
X156809890Y-52912292D01*
X156737482Y-53037708D01*
X156726212Y-53079765D01*
X156027340Y-52380894D01*
X155967084Y-52463830D01*
X155859897Y-52674197D01*
X155786934Y-52898752D01*
X155750000Y-53131947D01*
X152250000Y-53131947D01*
X152213065Y-52898752D01*
X152140102Y-52674197D01*
X152032914Y-52463828D01*
X151972658Y-52380894D01*
X151972658Y-52380893D01*
X151273787Y-53079765D01*
X151262518Y-53037708D01*
X151190110Y-52912292D01*
X151087708Y-52809890D01*
X150962292Y-52737482D01*
X150920234Y-52726212D01*
X151619105Y-52027340D01*
X151619104Y-52027339D01*
X151536174Y-51967087D01*
X151325802Y-51859897D01*
X151101247Y-51786934D01*
X151101248Y-51786934D01*
X150868052Y-51750000D01*
X150631948Y-51750000D01*
X150398752Y-51786934D01*
X150174197Y-51859897D01*
X149963830Y-51967084D01*
X149880894Y-52027340D01*
X150579766Y-52726212D01*
X150537708Y-52737482D01*
X150412292Y-52809890D01*
X150309890Y-52912292D01*
X150237482Y-53037708D01*
X150226212Y-53079766D01*
X149527340Y-52380894D01*
X149467084Y-52463830D01*
X149359897Y-52674197D01*
X149286934Y-52898752D01*
X149250000Y-53131947D01*
X125879420Y-53131947D01*
X130379464Y-48631902D01*
X149249500Y-48631902D01*
X149249500Y-48868097D01*
X149286446Y-49101368D01*
X149359433Y-49325996D01*
X149387826Y-49381719D01*
X149466657Y-49536433D01*
X149605483Y-49727510D01*
X149772490Y-49894517D01*
X149963567Y-50033343D01*
X150062991Y-50084002D01*
X150174003Y-50140566D01*
X150174005Y-50140566D01*
X150174008Y-50140568D01*
X150294412Y-50179689D01*
X150398631Y-50213553D01*
X150631903Y-50250500D01*
X150631908Y-50250500D01*
X150868097Y-50250500D01*
X151101368Y-50213553D01*
X151137075Y-50201951D01*
X151325992Y-50140568D01*
X151536433Y-50033343D01*
X151727510Y-49894517D01*
X151894517Y-49727510D01*
X152033343Y-49536433D01*
X152140568Y-49325992D01*
X152213553Y-49101368D01*
X152221613Y-49050480D01*
X152250500Y-48868097D01*
X152250500Y-48631902D01*
X152213553Y-48398631D01*
X152140566Y-48174003D01*
X152033342Y-47963566D01*
X151894517Y-47772490D01*
X151727510Y-47605483D01*
X151536433Y-47466657D01*
X151325996Y-47359433D01*
X151101368Y-47286446D01*
X150868097Y-47249500D01*
X150868092Y-47249500D01*
X150631908Y-47249500D01*
X150631903Y-47249500D01*
X150398631Y-47286446D01*
X150174003Y-47359433D01*
X149963566Y-47466657D01*
X149877503Y-47529186D01*
X149772490Y-47605483D01*
X149772488Y-47605485D01*
X149772487Y-47605485D01*
X149605485Y-47772487D01*
X149605485Y-47772488D01*
X149605483Y-47772490D01*
X149545862Y-47854550D01*
X149466657Y-47963566D01*
X149359433Y-48174003D01*
X149286446Y-48398631D01*
X149249500Y-48631902D01*
X130379464Y-48631902D01*
X133265297Y-45746069D01*
X133305524Y-45719191D01*
X133329179Y-45709394D01*
X133460289Y-45621789D01*
X133571789Y-45510289D01*
X133659394Y-45379179D01*
X133719737Y-45233497D01*
X133750500Y-45078842D01*
X133750500Y-44921158D01*
X133750500Y-44921155D01*
X133750499Y-44921153D01*
X133719738Y-44766510D01*
X133719737Y-44766503D01*
X133685855Y-44684703D01*
X133659397Y-44620827D01*
X133659390Y-44620814D01*
X133571789Y-44489711D01*
X133571786Y-44489707D01*
X133460292Y-44378213D01*
X133460288Y-44378210D01*
X133329185Y-44290609D01*
X133329172Y-44290602D01*
X133183501Y-44230264D01*
X133183489Y-44230261D01*
X133028845Y-44199500D01*
X133028842Y-44199500D01*
X132871158Y-44199500D01*
X132871155Y-44199500D01*
X132716510Y-44230261D01*
X132716498Y-44230264D01*
X132570827Y-44290602D01*
X132570814Y-44290609D01*
X132439711Y-44378210D01*
X132439707Y-44378213D01*
X132328213Y-44489707D01*
X132328207Y-44489715D01*
X132240607Y-44620818D01*
X132240606Y-44620819D01*
X132230805Y-44644480D01*
X132203927Y-44684703D01*
X123209550Y-53679080D01*
X123209544Y-53679088D01*
X123160312Y-53752768D01*
X123160313Y-53752769D01*
X123127421Y-53801996D01*
X123127414Y-53802008D01*
X123070842Y-53938586D01*
X123070840Y-53938592D01*
X123042000Y-54083579D01*
X123042000Y-55662779D01*
X123022315Y-55729818D01*
X122990885Y-55763097D01*
X122912711Y-55819893D01*
X122912705Y-55819898D01*
X122762390Y-55970213D01*
X122637451Y-56142179D01*
X122540944Y-56331585D01*
X122475253Y-56533760D01*
X122442000Y-56743713D01*
X122442000Y-57237769D01*
X122422315Y-57304808D01*
X122405681Y-57325450D01*
X115891531Y-63839599D01*
X115830208Y-63873084D01*
X115760516Y-63868100D01*
X115756397Y-63866479D01*
X115569127Y-63788909D01*
X115569119Y-63788907D01*
X115371007Y-63749500D01*
X115371003Y-63749500D01*
X115168997Y-63749500D01*
X115168992Y-63749500D01*
X114970880Y-63788907D01*
X114970872Y-63788909D01*
X114784244Y-63866213D01*
X114703891Y-63919904D01*
X114637213Y-63940782D01*
X114569833Y-63922297D01*
X114566109Y-63919904D01*
X114485755Y-63866213D01*
X114299127Y-63788909D01*
X114299119Y-63788907D01*
X114101007Y-63749500D01*
X114101003Y-63749500D01*
X113898997Y-63749500D01*
X113898992Y-63749500D01*
X113700880Y-63788907D01*
X113700868Y-63788910D01*
X113619661Y-63822547D01*
X113550191Y-63830016D01*
X113505140Y-63810405D01*
X113504872Y-63810897D01*
X113499374Y-63807894D01*
X113497895Y-63807251D01*
X113497086Y-63806645D01*
X113362379Y-63756403D01*
X113362372Y-63756401D01*
X113302844Y-63750000D01*
X112980000Y-63750000D01*
X112980000Y-64634134D01*
X112977617Y-64658326D01*
X112974500Y-64673995D01*
X112974500Y-64714170D01*
X112960255Y-64699925D01*
X112874745Y-64650556D01*
X112779370Y-64625000D01*
X112680630Y-64625000D01*
X112585255Y-64650556D01*
X112499745Y-64699925D01*
X112480000Y-64719670D01*
X112480000Y-63750000D01*
X112157155Y-63750000D01*
X112097627Y-63756401D01*
X112097620Y-63756403D01*
X111962913Y-63806645D01*
X111962906Y-63806649D01*
X111847812Y-63892809D01*
X111847809Y-63892812D01*
X111761649Y-64007906D01*
X111761645Y-64007913D01*
X111711403Y-64142620D01*
X111711401Y-64142627D01*
X111705000Y-64202155D01*
X111705000Y-64750000D01*
X112449670Y-64750000D01*
X112429925Y-64769745D01*
X112380556Y-64855255D01*
X112355000Y-64950630D01*
X112355000Y-65049370D01*
X112380556Y-65144745D01*
X112429925Y-65230255D01*
X112449670Y-65250000D01*
X111705000Y-65250000D01*
X111705000Y-65325500D01*
X111685315Y-65392539D01*
X111632511Y-65438294D01*
X111581000Y-65449500D01*
X107651487Y-65449500D01*
X107584448Y-65429815D01*
X107541002Y-65381795D01*
X107499363Y-65300075D01*
X107461961Y-65226669D01*
X107325449Y-65038776D01*
X107161224Y-64874551D01*
X106973331Y-64738039D01*
X106953727Y-64728050D01*
X106766400Y-64632601D01*
X106545514Y-64560831D01*
X106316129Y-64524500D01*
X106316124Y-64524500D01*
X106083876Y-64524500D01*
X106083871Y-64524500D01*
X105854484Y-64560831D01*
X105854481Y-64560831D01*
X105687818Y-64614984D01*
X105617977Y-64616979D01*
X105558144Y-64580899D01*
X105527316Y-64518198D01*
X105525500Y-64497053D01*
X105525500Y-55947772D01*
X105525499Y-55947758D01*
X105495548Y-55720263D01*
X105495548Y-55720262D01*
X105488765Y-55694949D01*
X105436158Y-55498613D01*
X105403598Y-55420006D01*
X105348347Y-55286618D01*
X105348342Y-55286608D01*
X105310248Y-55220627D01*
X105299461Y-55201943D01*
X105233611Y-55087888D01*
X105155749Y-54986417D01*
X105093919Y-54905838D01*
X105093916Y-54905835D01*
X105093913Y-54905831D01*
X95869166Y-45681084D01*
X95869159Y-45681078D01*
X95687121Y-45541396D01*
X95687115Y-45541392D01*
X95687112Y-45541390D01*
X95488388Y-45426656D01*
X95488379Y-45426651D01*
X95276387Y-45338842D01*
X95054739Y-45279452D01*
X95054733Y-45279451D01*
X95054728Y-45279450D01*
X94827235Y-45249501D01*
X94827234Y-45249501D01*
X94597766Y-45249501D01*
X94597765Y-45249501D01*
X94370271Y-45279450D01*
X94370264Y-45279451D01*
X94370261Y-45279452D01*
X94276577Y-45304554D01*
X94148612Y-45338842D01*
X93936620Y-45426651D01*
X93936611Y-45426656D01*
X93737888Y-45541390D01*
X93737878Y-45541396D01*
X93555840Y-45681078D01*
X93555833Y-45681084D01*
X93393584Y-45843333D01*
X93393578Y-45843340D01*
X93253896Y-46025378D01*
X93253890Y-46025388D01*
X93139156Y-46224111D01*
X93139151Y-46224120D01*
X93051342Y-46436112D01*
X92991953Y-46657758D01*
X92991950Y-46657771D01*
X92962001Y-46885265D01*
X92962001Y-47114736D01*
X92970672Y-47180606D01*
X92959906Y-47249642D01*
X92913525Y-47301897D01*
X92846256Y-47320781D01*
X92779456Y-47300299D01*
X92760052Y-47284471D01*
X87219334Y-41743753D01*
X122442500Y-41743753D01*
X122442500Y-41750000D01*
X123359488Y-41750000D01*
X123326575Y-41807007D01*
X123292500Y-41934174D01*
X123292500Y-42065826D01*
X123326575Y-42192993D01*
X123359488Y-42250000D01*
X122442500Y-42250000D01*
X122442500Y-42256246D01*
X122475742Y-42466127D01*
X122475742Y-42466130D01*
X122541404Y-42668217D01*
X122637879Y-42857557D01*
X122762772Y-43029459D01*
X122762776Y-43029464D01*
X122913035Y-43179723D01*
X122913040Y-43179727D01*
X123084942Y-43304620D01*
X123274282Y-43401095D01*
X123476371Y-43466757D01*
X123542500Y-43477231D01*
X123542500Y-42433012D01*
X123599507Y-42465925D01*
X123726674Y-42500000D01*
X123858326Y-42500000D01*
X123985493Y-42465925D01*
X124042500Y-42433012D01*
X124042500Y-43477230D01*
X124108626Y-43466757D01*
X124108629Y-43466757D01*
X124310717Y-43401095D01*
X124500057Y-43304620D01*
X124671959Y-43179727D01*
X124671964Y-43179723D01*
X124822223Y-43029464D01*
X124822227Y-43029459D01*
X124947120Y-42857557D01*
X125043595Y-42668217D01*
X125109257Y-42466130D01*
X125109257Y-42466127D01*
X125142500Y-42256246D01*
X125142500Y-42250000D01*
X124225512Y-42250000D01*
X124258425Y-42192993D01*
X124292500Y-42065826D01*
X124292500Y-41934174D01*
X124258425Y-41807007D01*
X124225512Y-41750000D01*
X125142500Y-41750000D01*
X125142500Y-41743753D01*
X125109257Y-41533872D01*
X125109257Y-41533869D01*
X125043595Y-41331782D01*
X124947120Y-41142442D01*
X124822227Y-40970540D01*
X124822223Y-40970535D01*
X124671964Y-40820276D01*
X124671959Y-40820272D01*
X124500057Y-40695379D01*
X124310715Y-40598903D01*
X124108624Y-40533241D01*
X124042500Y-40522768D01*
X124042500Y-41566988D01*
X123985493Y-41534075D01*
X123858326Y-41500000D01*
X123726674Y-41500000D01*
X123599507Y-41534075D01*
X123542500Y-41566988D01*
X123542500Y-40522768D01*
X123542499Y-40522768D01*
X123476375Y-40533241D01*
X123274284Y-40598903D01*
X123084942Y-40695379D01*
X122913040Y-40820272D01*
X122913035Y-40820276D01*
X122762776Y-40970535D01*
X122762772Y-40970540D01*
X122637879Y-41142442D01*
X122541404Y-41331782D01*
X122475742Y-41533869D01*
X122475742Y-41533872D01*
X122442500Y-41743753D01*
X87219334Y-41743753D01*
X85836818Y-40361237D01*
X85803333Y-40299914D01*
X85800499Y-40273556D01*
X85800499Y-39899998D01*
X85800498Y-39899981D01*
X85789999Y-39797203D01*
X85789998Y-39797200D01*
X85734814Y-39630666D01*
X85642712Y-39481344D01*
X85518656Y-39357288D01*
X85369334Y-39265186D01*
X85202797Y-39210001D01*
X85202795Y-39210000D01*
X85100010Y-39199500D01*
X82899998Y-39199500D01*
X82899981Y-39199501D01*
X82797203Y-39210000D01*
X82797200Y-39210001D01*
X82630668Y-39265185D01*
X82630663Y-39265187D01*
X82481342Y-39357289D01*
X82357289Y-39481342D01*
X82265187Y-39630663D01*
X82265186Y-39630666D01*
X82210001Y-39797203D01*
X82210001Y-39797204D01*
X82210000Y-39797204D01*
X82199500Y-39899983D01*
X82199500Y-42100001D01*
X82199501Y-42100018D01*
X82210000Y-42202796D01*
X82210001Y-42202799D01*
X82227712Y-42256246D01*
X82265186Y-42369334D01*
X82357288Y-42518656D01*
X82481344Y-42642712D01*
X82630666Y-42734814D01*
X82797203Y-42789999D01*
X82899991Y-42800500D01*
X83273556Y-42800499D01*
X83340595Y-42820183D01*
X83361237Y-42836818D01*
X84574897Y-44050479D01*
X84608382Y-44111802D01*
X84603398Y-44181494D01*
X84561526Y-44237427D01*
X84496062Y-44261844D01*
X84455123Y-44257935D01*
X84352012Y-44230306D01*
X84118020Y-44199501D01*
X84118017Y-44199500D01*
X84118011Y-44199500D01*
X83881989Y-44199500D01*
X83881983Y-44199500D01*
X83881979Y-44199501D01*
X83647989Y-44230306D01*
X83420006Y-44291394D01*
X83201954Y-44381714D01*
X83201943Y-44381719D01*
X82997545Y-44499730D01*
X82810302Y-44643406D01*
X82810295Y-44643412D01*
X82643412Y-44810295D01*
X82643406Y-44810302D01*
X82499730Y-44997545D01*
X82381719Y-45201943D01*
X82381714Y-45201954D01*
X82291394Y-45420006D01*
X82230306Y-45647989D01*
X82199501Y-45881979D01*
X82199500Y-45881995D01*
X82199500Y-46118004D01*
X82199501Y-46118020D01*
X82230306Y-46352010D01*
X82291394Y-46579993D01*
X82381714Y-46798045D01*
X82381719Y-46798056D01*
X82452677Y-46920957D01*
X82499727Y-47002450D01*
X82499729Y-47002453D01*
X82499730Y-47002454D01*
X82643406Y-47189697D01*
X82643412Y-47189704D01*
X82810295Y-47356587D01*
X82810302Y-47356593D01*
X82997548Y-47500272D01*
X82997550Y-47500273D01*
X83047632Y-47529187D01*
X83073312Y-47548893D01*
X84574899Y-49050480D01*
X84608384Y-49111803D01*
X84603400Y-49181495D01*
X84561528Y-49237428D01*
X84496064Y-49261845D01*
X84455127Y-49257936D01*
X84352014Y-49230307D01*
X84352013Y-49230306D01*
X84352010Y-49230306D01*
X84118020Y-49199501D01*
X84118017Y-49199500D01*
X84118011Y-49199500D01*
X83881989Y-49199500D01*
X83881983Y-49199500D01*
X83881979Y-49199501D01*
X83647989Y-49230306D01*
X83420006Y-49291394D01*
X83201954Y-49381714D01*
X83201943Y-49381719D01*
X83010909Y-49492014D01*
X83000502Y-49498023D01*
X82997545Y-49499730D01*
X82810302Y-49643406D01*
X82810295Y-49643412D01*
X82643412Y-49810295D01*
X82643406Y-49810302D01*
X82499730Y-49997545D01*
X82381719Y-50201943D01*
X82381714Y-50201954D01*
X82291394Y-50420006D01*
X82230306Y-50647989D01*
X82199501Y-50881979D01*
X82199500Y-50881995D01*
X82199500Y-51118004D01*
X82199501Y-51118020D01*
X82230306Y-51352010D01*
X82291394Y-51579993D01*
X82381714Y-51798045D01*
X82381719Y-51798056D01*
X82452677Y-51920957D01*
X82499727Y-52002450D01*
X82499729Y-52002453D01*
X82499730Y-52002454D01*
X82643406Y-52189697D01*
X82643412Y-52189704D01*
X82810295Y-52356587D01*
X82810301Y-52356592D01*
X82997550Y-52500273D01*
X83104863Y-52562230D01*
X83201943Y-52618280D01*
X83201948Y-52618282D01*
X83201951Y-52618284D01*
X83420007Y-52708606D01*
X83647986Y-52769693D01*
X83881989Y-52800500D01*
X83881996Y-52800500D01*
X84118004Y-52800500D01*
X84118011Y-52800500D01*
X84352014Y-52769693D01*
X84579993Y-52708606D01*
X84798049Y-52618284D01*
X84813497Y-52609364D01*
X84881395Y-52592890D01*
X84947423Y-52615740D01*
X84990616Y-52670659D01*
X84999500Y-52716750D01*
X84999500Y-54283249D01*
X84979815Y-54350288D01*
X84927011Y-54396043D01*
X84857853Y-54405987D01*
X84813503Y-54390638D01*
X84798050Y-54381716D01*
X84798042Y-54381713D01*
X84579993Y-54291394D01*
X84352010Y-54230306D01*
X84118020Y-54199501D01*
X84118017Y-54199500D01*
X84118011Y-54199500D01*
X83881989Y-54199500D01*
X83881983Y-54199500D01*
X83881979Y-54199501D01*
X83647989Y-54230306D01*
X83420006Y-54291394D01*
X83201954Y-54381714D01*
X83201943Y-54381719D01*
X83014905Y-54489707D01*
X83000502Y-54498023D01*
X82997545Y-54499730D01*
X82810302Y-54643406D01*
X82810295Y-54643412D01*
X82643412Y-54810295D01*
X82643406Y-54810302D01*
X82499730Y-54997545D01*
X82381719Y-55201943D01*
X82381714Y-55201954D01*
X82291394Y-55420006D01*
X82230306Y-55647989D01*
X82199501Y-55881979D01*
X82199500Y-55881995D01*
X82199500Y-56118004D01*
X82199501Y-56118020D01*
X82230306Y-56352010D01*
X82291394Y-56579993D01*
X82381714Y-56798045D01*
X82381719Y-56798056D01*
X82452677Y-56920957D01*
X82499727Y-57002450D01*
X82499729Y-57002453D01*
X82499730Y-57002454D01*
X82643406Y-57189697D01*
X82643412Y-57189704D01*
X82810295Y-57356587D01*
X82810301Y-57356592D01*
X82997550Y-57500273D01*
X83128918Y-57576118D01*
X83201943Y-57618280D01*
X83201948Y-57618282D01*
X83201951Y-57618284D01*
X83420007Y-57708606D01*
X83647986Y-57769693D01*
X83881989Y-57800500D01*
X83881996Y-57800500D01*
X84118004Y-57800500D01*
X84118011Y-57800500D01*
X84352014Y-57769693D01*
X84579993Y-57708606D01*
X84798049Y-57618284D01*
X84813497Y-57609364D01*
X84881395Y-57592890D01*
X84947423Y-57615740D01*
X84990616Y-57670659D01*
X84999500Y-57716750D01*
X84999500Y-64661011D01*
X84979815Y-64728050D01*
X84927011Y-64773805D01*
X84857853Y-64783749D01*
X84794297Y-64754724D01*
X84757794Y-64700016D01*
X84757764Y-64699925D01*
X84734814Y-64630666D01*
X84642712Y-64481344D01*
X84518656Y-64357288D01*
X84425888Y-64300069D01*
X84369336Y-64265187D01*
X84369331Y-64265185D01*
X84367862Y-64264698D01*
X84202797Y-64210001D01*
X84202795Y-64210000D01*
X84100010Y-64199500D01*
X81899998Y-64199500D01*
X81899981Y-64199501D01*
X81797203Y-64210000D01*
X81797200Y-64210001D01*
X81630668Y-64265185D01*
X81630663Y-64265187D01*
X81481342Y-64357289D01*
X81357289Y-64481342D01*
X81265187Y-64630663D01*
X81265185Y-64630668D01*
X81246293Y-64687681D01*
X81210001Y-64797203D01*
X81210001Y-64797204D01*
X81210000Y-64797204D01*
X81199500Y-64899983D01*
X77500500Y-64899983D01*
X77500500Y-35624500D01*
X77520185Y-35557461D01*
X77572989Y-35511706D01*
X77624500Y-35500500D01*
X161375500Y-35500500D01*
X161442539Y-35520185D01*
G37*
%TD.AperFunction*%
%TA.AperFunction,Conductor*%
G36*
X157944408Y-84520185D02*
G01*
X157977685Y-84551613D01*
X158105483Y-84727510D01*
X158272490Y-84894517D01*
X158463567Y-85033343D01*
X158552864Y-85078842D01*
X158637647Y-85122041D01*
X158688443Y-85170016D01*
X158705238Y-85237837D01*
X158682701Y-85303971D01*
X158669033Y-85320207D01*
X146876825Y-97112416D01*
X146815502Y-97145901D01*
X146745810Y-97140917D01*
X146689877Y-97099045D01*
X146665460Y-97033581D01*
X146665144Y-97024735D01*
X146665144Y-90947584D01*
X146684829Y-90880545D01*
X146701458Y-90859908D01*
X149429419Y-88131947D01*
X151250000Y-88131947D01*
X151250000Y-88368052D01*
X151286934Y-88601247D01*
X151359897Y-88825802D01*
X151467087Y-89036174D01*
X151527338Y-89119104D01*
X151527340Y-89119105D01*
X152226212Y-88420233D01*
X152237482Y-88462292D01*
X152309890Y-88587708D01*
X152412292Y-88690110D01*
X152537708Y-88762518D01*
X152579765Y-88773787D01*
X151880893Y-89472658D01*
X151963828Y-89532914D01*
X152174197Y-89640102D01*
X152398752Y-89713065D01*
X152398751Y-89713065D01*
X152631948Y-89750000D01*
X152868052Y-89750000D01*
X153101247Y-89713065D01*
X153325802Y-89640102D01*
X153536163Y-89532918D01*
X153536169Y-89532914D01*
X153619104Y-89472658D01*
X153619105Y-89472658D01*
X152920233Y-88773787D01*
X152962292Y-88762518D01*
X153087708Y-88690110D01*
X153190110Y-88587708D01*
X153262518Y-88462292D01*
X153273787Y-88420234D01*
X153972658Y-89119105D01*
X153972658Y-89119104D01*
X154032914Y-89036169D01*
X154032918Y-89036163D01*
X154140102Y-88825802D01*
X154213065Y-88601247D01*
X154250000Y-88368052D01*
X154250000Y-88131947D01*
X154213065Y-87898752D01*
X154140102Y-87674197D01*
X154032914Y-87463828D01*
X153972658Y-87380894D01*
X153972658Y-87380893D01*
X153273787Y-88079765D01*
X153262518Y-88037708D01*
X153190110Y-87912292D01*
X153087708Y-87809890D01*
X152962292Y-87737482D01*
X152920234Y-87726212D01*
X153619105Y-87027340D01*
X153619104Y-87027338D01*
X153536174Y-86967087D01*
X153325802Y-86859897D01*
X153101247Y-86786934D01*
X153101248Y-86786934D01*
X152868052Y-86750000D01*
X152631948Y-86750000D01*
X152398752Y-86786934D01*
X152174197Y-86859897D01*
X151963830Y-86967084D01*
X151880894Y-87027340D01*
X152579766Y-87726212D01*
X152537708Y-87737482D01*
X152412292Y-87809890D01*
X152309890Y-87912292D01*
X152237482Y-88037708D01*
X152226212Y-88079766D01*
X151527340Y-87380894D01*
X151467084Y-87463830D01*
X151359897Y-87674197D01*
X151286934Y-87898752D01*
X151250000Y-88131947D01*
X149429419Y-88131947D01*
X152310087Y-85251278D01*
X152371408Y-85217795D01*
X152417163Y-85216488D01*
X152452789Y-85222130D01*
X152631903Y-85250500D01*
X152631908Y-85250500D01*
X152868097Y-85250500D01*
X153101368Y-85213553D01*
X153325992Y-85140568D01*
X153536433Y-85033343D01*
X153727510Y-84894517D01*
X153894517Y-84727510D01*
X154022313Y-84551613D01*
X154077643Y-84508949D01*
X154122631Y-84500500D01*
X157877369Y-84500500D01*
X157944408Y-84520185D01*
G37*
%TD.AperFunction*%
%TD*%
M02*
